<svg width="45" height="45" viewBox="0 0 45 45" fill="none" xmlns="http://www.w3.org/2000/svg">
<circle cx="22.5" cy="22.5" r="22.5" fill="#3BCA77" fill-opacity="0.25"/>
<path fill-rule="evenodd" clip-rule="evenodd" d="M18.1258 31.9265L16.7858 29.5144C16.6094 29.1969 16.2748 29 15.9116 29H14C13.4477 29 13 28.5523 13 28V16C13 15.4477 13.4477 15 14 15H31.5C32.0523 15 32.5 15.4477 32.5 16V28C32.5 28.5523 32.0523 29 31.5 29H22.0884C21.7252 29 21.3906 29.1969 21.2142 29.5144L19.8742 31.9265C19.4932 32.6123 18.5068 32.6123 18.1258 31.9265ZM28 19.5H18C17.4477 19.5 17 19.9477 17 20.5C17 21.0523 17.4477 21.5 18 21.5H28C28.5523 21.5 29 21.0523 29 20.5C29 19.9477 28.5523 19.5 28 19.5ZM18 23.5H23C23.5523 23.5 24 23.9477 24 24.5C24 25.0523 23.5523 25.5 23 25.5H18C17.4477 25.5 17 25.0523 17 24.5C17 23.9477 17.4477 23.5 18 23.5Z" fill="#3BCA77"/>
<path d="M16.7858 29.5144L17.2228 29.2715L17.2228 29.2715L16.7858 29.5144ZM18.1258 31.9265L18.5629 31.6837L18.5629 31.6837L18.1258 31.9265ZM21.2142 29.5144L21.6513 29.7572L21.6513 29.7572L21.2142 29.5144ZM19.8742 31.9265L20.3112 32.1693L20.3112 32.1693L19.8742 31.9265ZM16.3487 29.7572L17.6888 32.1693L18.5629 31.6837L17.2228 29.2715L16.3487 29.7572ZM15.9116 29.5C16.0932 29.5 16.2605 29.5984 16.3487 29.7572L17.2228 29.2715C16.9583 28.7953 16.4563 28.5 15.9116 28.5V29.5ZM14 29.5H15.9116V28.5H14V29.5ZM12.5 28C12.5 28.8284 13.1716 29.5 14 29.5V28.5C13.7239 28.5 13.5 28.2761 13.5 28H12.5ZM12.5 16V28H13.5V16H12.5ZM14 14.5C13.1716 14.5 12.5 15.1716 12.5 16H13.5C13.5 15.7239 13.7239 15.5 14 15.5V14.5ZM31.5 14.5H14V15.5H31.5V14.5ZM33 16C33 15.1716 32.3284 14.5 31.5 14.5V15.5C31.7761 15.5 32 15.7239 32 16H33ZM33 28V16H32V28H33ZM31.5 29.5C32.3284 29.5 33 28.8284 33 28H32C32 28.2761 31.7761 28.5 31.5 28.5V29.5ZM22.0884 29.5H31.5V28.5H22.0884V29.5ZM21.6513 29.7572C21.7395 29.5984 21.9068 29.5 22.0884 29.5V28.5C21.5437 28.5 21.0417 28.7953 20.7772 29.2715L21.6513 29.7572ZM20.3112 32.1693L21.6513 29.7572L20.7772 29.2715L19.4371 31.6837L20.3112 32.1693ZM17.6888 32.1693C18.2603 33.1981 19.7397 33.1981 20.3112 32.1693L19.4371 31.6837C19.2466 32.0266 18.7534 32.0266 18.5629 31.6837L17.6888 32.1693ZM18 20H28V19H18V20ZM17.5 20.5C17.5 20.2239 17.7239 20 18 20V19C17.1716 19 16.5 19.6716 16.5 20.5H17.5ZM18 21C17.7239 21 17.5 20.7761 17.5 20.5H16.5C16.5 21.3284 17.1716 22 18 22V21ZM28 21H18V22H28V21ZM28.5 20.5C28.5 20.7761 28.2761 21 28 21V22C28.8284 22 29.5 21.3284 29.5 20.5H28.5ZM28 20C28.2761 20 28.5 20.2239 28.5 20.5H29.5C29.5 19.6716 28.8284 19 28 19V20ZM23 23H18V24H23V23ZM24.5 24.5C24.5 23.6716 23.8284 23 23 23V24C23.2761 24 23.5 24.2239 23.5 24.5H24.5ZM23 26C23.8284 26 24.5 25.3284 24.5 24.5H23.5C23.5 24.7761 23.2761 25 23 25V26ZM18 26H23V25H18V26ZM16.5 24.5C16.5 25.3284 17.1716 26 18 26V25C17.7239 25 17.5 24.7761 17.5 24.5H16.5ZM18 23C17.1716 23 16.5 23.6716 16.5 24.5H17.5C17.5 24.2239 17.7239 24 18 24V23Z" fill="#3BCA77"/>
</svg>
