<svg width="617" height="189" viewBox="0 0 617 189" fill="none" xmlns="http://www.w3.org/2000/svg">
<rect x="0.351562" width="616.304" height="189" rx="5" fill="#535CD9"/>
<path d="M151.757 84.6807H155.012C157.392 84.6807 158.407 83.4907 158.407 81.6007C158.407 79.7107 157.392 78.5207 155.012 78.5207H151.757V84.6807ZM164.497 81.6007C164.497 85.6607 161.732 89.4407 155.467 89.4407H151.757V98.2607H145.772V73.6907H155.467C161.487 73.6907 164.497 77.0857 164.497 81.6007ZM173.597 89.1957V98.2607H167.612V78.7307H173.597V81.9857C174.962 79.9207 177.097 78.5207 179.722 78.5207V84.8557H178.077C175.242 84.8557 173.597 85.8357 173.597 89.1957ZM201.693 88.4957C201.693 94.6907 197.213 98.5407 191.473 98.5407C185.733 98.5407 181.393 94.6907 181.393 88.4957C181.393 82.3007 185.838 78.4507 191.543 78.4507C197.283 78.4507 201.693 82.3007 201.693 88.4957ZM187.483 88.4957C187.483 91.7857 189.303 93.3607 191.473 93.3607C193.608 93.3607 195.603 91.7857 195.603 88.4957C195.603 85.1707 193.643 83.6307 191.543 83.6307C189.373 83.6307 187.483 85.1707 187.483 88.4957ZM207.843 76.7007C205.708 76.7007 204.273 75.2657 204.273 73.4807C204.273 71.6607 205.708 70.2257 207.843 70.2257C209.943 70.2257 211.378 71.6607 211.378 73.4807C211.378 75.2657 209.943 76.7007 207.843 76.7007ZM204.868 78.7307H210.853V100.781C210.853 105.856 208.018 107.571 203.958 107.571H201.613V102.496H203.048C204.378 102.496 204.868 102.006 204.868 100.851V78.7307ZM223.766 83.2457C221.806 83.2457 220.301 84.4357 219.951 86.6057H227.441C227.441 84.4707 225.761 83.2457 223.766 83.2457ZM233.111 91.7857C232.166 95.6007 228.701 98.5407 223.836 98.5407C218.096 98.5407 213.966 94.6907 213.966 88.4957C213.966 82.3007 218.026 78.4507 223.836 78.4507C229.541 78.4507 233.566 82.2307 233.566 88.1807C233.566 88.7407 233.531 89.3357 233.461 89.9307H219.916C220.126 92.4857 221.701 93.6757 223.626 93.6757C225.306 93.6757 226.251 92.8357 226.741 91.7857H233.111ZM235.534 88.4957C235.534 82.3357 239.594 78.4507 245.334 78.4507C250.234 78.4507 253.699 81.1457 254.714 85.8007H248.344C247.854 84.4357 246.874 83.5607 245.229 83.5607C243.094 83.5607 241.624 85.2407 241.624 88.4957C241.624 91.7507 243.094 93.4307 245.229 93.4307C246.874 93.4307 247.819 92.6257 248.344 91.1907H254.714C253.699 95.7057 250.234 98.5407 245.334 98.5407C239.594 98.5407 235.534 94.6907 235.534 88.4957ZM258.86 91.4707V83.7007H256.48V78.7307H258.86V73.9707H264.845V78.7307H268.765V83.7007H264.845V91.5407C264.845 92.6957 265.335 93.1857 266.665 93.1857H268.8V98.2607H265.755C261.695 98.2607 258.86 96.5457 258.86 91.4707ZM288.756 73.6907C296.596 73.6907 301.636 78.6607 301.636 85.9757C301.636 93.2557 296.596 98.2607 288.756 98.2607H279.551V73.6907H288.756ZM285.536 93.0807H288.371C292.886 93.0807 295.546 90.4907 295.546 85.9757C295.546 81.4607 292.886 78.8007 288.371 78.8007H285.536V93.0807ZM304.981 98.2607V78.7307H310.966V98.2607H304.981ZM307.991 76.7007C305.856 76.7007 304.421 75.2657 304.421 73.4807C304.421 71.6607 305.856 70.2257 307.991 70.2257C310.091 70.2257 311.526 71.6607 311.526 73.4807C311.526 75.2657 310.091 76.7007 307.991 76.7007ZM331.158 92.5907C331.158 95.9857 328.148 98.5407 323.248 98.5407C318.033 98.5407 314.533 95.6357 314.253 91.8557H320.168C320.308 93.2207 321.533 94.1307 323.178 94.1307C324.718 94.1307 325.523 93.4307 325.523 92.5557C325.523 89.4057 314.883 91.6807 314.883 84.5057C314.883 81.1807 317.718 78.4507 322.828 78.4507C327.868 78.4507 330.668 81.2507 331.053 85.1007H325.523C325.348 83.7707 324.333 82.8957 322.653 82.8957C321.253 82.8957 320.483 83.4557 320.483 84.4007C320.483 87.5157 331.053 85.3107 331.158 92.5907ZM333.629 88.4957C333.629 82.3357 337.689 78.4507 343.429 78.4507C348.329 78.4507 351.794 81.1457 352.809 85.8007H346.439C345.949 84.4357 344.969 83.5607 343.324 83.5607C341.189 83.5607 339.719 85.2407 339.719 88.4957C339.719 91.7507 341.189 93.4307 343.324 93.4307C344.969 93.4307 345.914 92.6257 346.439 91.1907H352.809C351.794 95.7057 348.329 98.5407 343.429 98.5407C337.689 98.5407 333.629 94.6907 333.629 88.4957ZM375.296 78.7307V98.2607H369.311V95.6007C368.121 97.2807 366.021 98.4707 363.396 98.4707C358.881 98.4707 355.836 95.3557 355.836 90.1407V78.7307H361.786V89.3357C361.786 91.9957 363.291 93.4657 365.531 93.4657C367.841 93.4657 369.311 91.9957 369.311 89.3357V78.7307H375.296ZM395.45 92.5907C395.45 95.9857 392.44 98.5407 387.54 98.5407C382.325 98.5407 378.825 95.6357 378.545 91.8557H384.46C384.6 93.2207 385.825 94.1307 387.47 94.1307C389.01 94.1307 389.815 93.4307 389.815 92.5557C389.815 89.4057 379.175 91.6807 379.175 84.5057C379.175 81.1807 382.01 78.4507 387.12 78.4507C392.16 78.4507 394.96 81.2507 395.345 85.1007H389.815C389.64 83.7707 388.625 82.8957 386.945 82.8957C385.545 82.8957 384.775 83.4557 384.775 84.4007C384.775 87.5157 395.345 85.3107 395.45 92.5907ZM414.966 92.5907C414.966 95.9857 411.956 98.5407 407.056 98.5407C401.841 98.5407 398.341 95.6357 398.061 91.8557H403.976C404.116 93.2207 405.341 94.1307 406.986 94.1307C408.526 94.1307 409.331 93.4307 409.331 92.5557C409.331 89.4057 398.691 91.6807 398.691 84.5057C398.691 81.1807 401.526 78.4507 406.636 78.4507C411.676 78.4507 414.476 81.2507 414.861 85.1007H409.331C409.156 83.7707 408.141 82.8957 406.461 82.8957C405.061 82.8957 404.291 83.4557 404.291 84.4007C404.291 87.5157 414.861 85.3107 414.966 92.5907ZM418.628 98.2607V78.7307H424.613V98.2607H418.628ZM421.638 76.7007C419.503 76.7007 418.068 75.2657 418.068 73.4807C418.068 71.6607 419.503 70.2257 421.638 70.2257C423.738 70.2257 425.173 71.6607 425.173 73.4807C425.173 75.2657 423.738 76.7007 421.638 76.7007ZM448.06 88.4957C448.06 94.6907 443.58 98.5407 437.84 98.5407C432.1 98.5407 427.76 94.6907 427.76 88.4957C427.76 82.3007 432.205 78.4507 437.91 78.4507C443.65 78.4507 448.06 82.3007 448.06 88.4957ZM433.85 88.4957C433.85 91.7857 435.67 93.3607 437.84 93.3607C439.975 93.3607 441.97 91.7857 441.97 88.4957C441.97 85.1707 440.01 83.6307 437.91 83.6307C435.74 83.6307 433.85 85.1707 433.85 88.4957ZM464.71 98.2607V87.6557C464.71 84.9957 463.24 83.5257 460.965 83.5257C458.69 83.5257 457.22 84.9957 457.22 87.6557V98.2607H451.235V78.7307H457.22V81.3207C458.41 79.6757 460.51 78.5207 463.135 78.5207C467.65 78.5207 470.66 81.6007 470.66 86.8507V98.2607H464.71ZM149.062 151.261L143.742 131.731H149.727L152.492 145.696L155.782 131.731H162.117L165.442 145.626L168.172 131.731H173.807L168.522 151.261H161.907L158.827 138.591L155.642 151.261H149.062ZM176.089 151.261V131.731H182.074V151.261H176.089ZM179.099 129.701C176.964 129.701 175.529 128.266 175.529 126.481C175.529 124.661 176.964 123.226 179.099 123.226C181.199 123.226 182.634 124.661 182.634 126.481C182.634 128.266 181.199 129.701 179.099 129.701ZM187.356 144.471V136.701H184.976V131.731H187.356V126.971H193.341V131.731H197.261V136.701H193.341V144.541C193.341 145.696 193.831 146.186 195.161 146.186H197.296V151.261H194.251C190.191 151.261 187.356 149.546 187.356 144.471ZM200.63 151.261V125.361H206.615V134.356C207.805 132.676 209.94 131.521 212.635 131.521C217.08 131.521 220.055 134.601 220.055 139.851V151.261H214.105V140.656C214.105 137.996 212.635 136.526 210.36 136.526C208.085 136.526 206.615 137.996 206.615 140.656V151.261H200.63ZM241.046 143.421V126.691H247.031V143.421C247.031 148.706 243.811 151.506 238.946 151.506C233.906 151.506 230.371 148.566 230.371 143.036H236.321C236.321 145.136 237.231 146.151 238.771 146.151C240.206 146.151 241.046 145.241 241.046 143.421ZM270.975 141.496C270.975 147.691 266.495 151.541 260.755 151.541C255.015 151.541 250.675 147.691 250.675 141.496C250.675 135.301 255.12 131.451 260.825 131.451C266.565 131.451 270.975 135.301 270.975 141.496ZM256.765 141.496C256.765 144.786 258.585 146.361 260.755 146.361C262.89 146.361 264.885 144.786 264.885 141.496C264.885 138.171 262.925 136.631 260.825 136.631C258.655 136.631 256.765 138.171 256.765 141.496ZM274.15 151.261V125.361H280.135V134.356C281.325 132.676 283.46 131.521 286.155 131.521C290.6 131.521 293.575 134.601 293.575 139.851V151.261H287.625V140.656C287.625 137.996 286.155 136.526 283.88 136.526C281.605 136.526 280.135 137.996 280.135 140.656V151.261H274.15ZM311.209 151.261V140.656C311.209 137.996 309.739 136.526 307.464 136.526C305.189 136.526 303.719 137.996 303.719 140.656V151.261H297.734V131.731H303.719V134.321C304.909 132.676 307.009 131.521 309.634 131.521C314.149 131.521 317.159 134.601 317.159 139.851V151.261H311.209ZM327.653 148.321C327.653 150.106 326.218 151.541 324.118 151.541C321.983 151.541 320.548 150.106 320.548 148.321C320.548 146.466 321.983 145.031 324.118 145.031C326.218 145.031 327.653 146.466 327.653 148.321Z" fill="white"/>
<path d="M155.02 29.556H158.782V45H155.02L148.728 35.474V45H144.966V29.556H148.728L155.02 39.126V29.556ZM166.921 35.562C165.689 35.562 164.743 36.31 164.523 37.674H169.231C169.231 36.332 168.175 35.562 166.921 35.562ZM172.795 40.93C172.201 43.328 170.023 45.176 166.965 45.176C163.357 45.176 160.761 42.756 160.761 38.862C160.761 34.968 163.313 32.548 166.965 32.548C170.551 32.548 173.081 34.924 173.081 38.664C173.081 39.016 173.059 39.39 173.015 39.764H164.501C164.633 41.37 165.623 42.118 166.833 42.118C167.889 42.118 168.483 41.59 168.791 40.93H172.795ZM182.325 45L179.971 41.59L177.991 45H173.921L177.969 38.73L173.811 32.724H178.035L180.389 36.112L182.369 32.724H186.439L182.325 38.906L186.549 45H182.325ZM188.593 40.732V35.848H187.097V32.724H188.593V29.732H192.355V32.724H194.819V35.848H192.355V40.776C192.355 41.502 192.663 41.81 193.499 41.81H194.841V45H192.927C190.375 45 188.593 43.922 188.593 40.732ZM218.516 45V38.334C218.516 36.728 217.592 35.848 216.162 35.848C214.732 35.848 213.808 36.728 213.808 38.334V45H210.068V38.334C210.068 36.728 209.144 35.848 207.714 35.848C206.284 35.848 205.36 36.728 205.36 38.334V45H201.598V32.724H205.36V34.264C206.086 33.274 207.34 32.592 208.946 32.592C210.794 32.592 212.29 33.406 213.126 34.88C213.94 33.582 215.48 32.592 217.262 32.592C220.298 32.592 222.256 34.528 222.256 37.828V45H218.516ZM230.299 35.562C229.067 35.562 228.121 36.31 227.901 37.674H232.609C232.609 36.332 231.553 35.562 230.299 35.562ZM236.173 40.93C235.579 43.328 233.401 45.176 230.343 45.176C226.735 45.176 224.139 42.756 224.139 38.862C224.139 34.968 226.691 32.548 230.343 32.548C233.929 32.548 236.459 34.924 236.459 38.664C236.459 39.016 236.437 39.39 236.393 39.764H227.879C228.011 41.37 229.001 42.118 230.211 42.118C231.267 42.118 231.861 41.59 232.169 40.93H236.173ZM243.856 35.562C242.624 35.562 241.678 36.31 241.458 37.674H246.166C246.166 36.332 245.11 35.562 243.856 35.562ZM249.73 40.93C249.136 43.328 246.958 45.176 243.9 45.176C240.292 45.176 237.696 42.756 237.696 38.862C237.696 34.968 240.248 32.548 243.9 32.548C247.486 32.548 250.016 34.924 250.016 38.664C250.016 39.016 249.994 39.39 249.95 39.764H241.436C241.568 41.37 242.558 42.118 243.768 42.118C244.824 42.118 245.418 41.59 245.726 40.93H249.73ZM252.595 40.732V35.848H251.099V32.724H252.595V29.732H256.357V32.724H258.821V35.848H256.357V40.776C256.357 41.502 256.665 41.81 257.501 41.81H258.843V45H256.929C254.377 45 252.595 43.922 252.595 40.732ZM260.938 45V32.724H264.7V45H260.938ZM262.83 31.448C261.488 31.448 260.586 30.546 260.586 29.424C260.586 28.28 261.488 27.378 262.83 27.378C264.15 27.378 265.052 28.28 265.052 29.424C265.052 30.546 264.15 31.448 262.83 31.448ZM275.897 45V38.334C275.897 36.662 274.973 35.738 273.543 35.738C272.113 35.738 271.189 36.662 271.189 38.334V45H267.427V32.724H271.189V34.352C271.937 33.318 273.257 32.592 274.907 32.592C277.745 32.592 279.637 34.528 279.637 37.828V45H275.897ZM281.503 38.84C281.503 34.968 283.901 32.548 286.915 32.548C288.719 32.548 290.039 33.362 290.699 34.462V32.724H294.461V44.978C294.461 48.256 292.569 51.05 288.323 51.05C284.671 51.05 282.295 49.202 281.965 46.276H285.683C285.925 47.2 286.849 47.794 288.147 47.794C289.577 47.794 290.699 47.046 290.699 44.978V43.24C290.017 44.318 288.719 45.176 286.915 45.176C283.901 45.176 281.503 42.712 281.503 38.84ZM290.699 38.862C290.699 36.904 289.445 35.826 288.015 35.826C286.607 35.826 285.331 36.882 285.331 38.84C285.331 40.798 286.607 41.898 288.015 41.898C289.445 41.898 290.699 40.82 290.699 38.862ZM313.856 38.862C313.856 42.756 311.04 45.176 307.432 45.176C303.824 45.176 301.096 42.756 301.096 38.862C301.096 34.968 303.89 32.548 307.476 32.548C311.084 32.548 313.856 34.968 313.856 38.862ZM304.924 38.862C304.924 40.93 306.068 41.92 307.432 41.92C308.774 41.92 310.028 40.93 310.028 38.862C310.028 36.772 308.796 35.804 307.476 35.804C306.112 35.804 304.924 36.772 304.924 38.862ZM324.322 45V38.334C324.322 36.662 323.398 35.738 321.968 35.738C320.538 35.738 319.614 36.662 319.614 38.334V45H315.852V32.724H319.614V34.352C320.362 33.318 321.682 32.592 323.332 32.592C326.17 32.592 328.062 34.528 328.062 37.828V45H324.322ZM335.097 33.472C335.229 30.304 337.297 28.566 340.575 28.566C343.963 28.566 345.789 30.502 345.789 32.922C345.789 35.034 344.469 36.156 343.369 36.53V36.618C344.975 37.146 346.075 38.378 346.075 40.49C346.075 43.196 344.139 45.132 340.773 45.132C337.429 45.132 335.009 43.548 334.899 39.918H338.551C338.573 41.172 339.255 42.008 340.641 42.008C341.807 42.008 342.445 41.26 342.445 40.204C342.445 38.774 341.587 38.202 339.629 38.202H338.925V35.144H339.629C340.905 35.144 342.137 34.836 342.137 33.384C342.137 32.306 341.499 31.712 340.487 31.712C339.277 31.712 338.837 32.592 338.771 33.472H335.097ZM348.285 36.75C348.285 32.042 349.891 28.61 354.467 28.61C359.043 28.61 360.649 32.042 360.649 36.75C360.649 41.502 359.043 44.934 354.467 44.934C349.891 44.934 348.285 41.502 348.285 36.75ZM356.953 36.75C356.953 34.286 356.689 32.13 354.467 32.13C352.245 32.13 351.981 34.286 351.981 36.75C351.981 39.302 352.245 41.414 354.467 41.414C356.689 41.414 356.953 39.302 356.953 36.75ZM384.591 45V38.334C384.591 36.728 383.667 35.848 382.237 35.848C380.807 35.848 379.883 36.728 379.883 38.334V45H376.143V38.334C376.143 36.728 375.219 35.848 373.789 35.848C372.359 35.848 371.435 36.728 371.435 38.334V45H367.673V32.724H371.435V34.264C372.161 33.274 373.415 32.592 375.021 32.592C376.869 32.592 378.365 33.406 379.201 34.88C380.015 33.582 381.555 32.592 383.337 32.592C386.373 32.592 388.331 34.528 388.331 37.828V45H384.591ZM390.962 45V32.724H394.724V45H390.962ZM392.854 31.448C391.512 31.448 390.61 30.546 390.61 29.424C390.61 28.28 391.512 27.378 392.854 27.378C394.174 27.378 395.076 28.28 395.076 29.424C395.076 30.546 394.174 31.448 392.854 31.448ZM405.92 45V38.334C405.92 36.662 404.996 35.738 403.566 35.738C402.136 35.738 401.212 36.662 401.212 38.334V45H397.45V32.724H401.212V34.352C401.96 33.318 403.28 32.592 404.93 32.592C407.768 32.592 409.66 34.528 409.66 37.828V45H405.92ZM422.24 41.436C422.24 43.57 420.348 45.176 417.268 45.176C413.99 45.176 411.79 43.35 411.614 40.974H415.332C415.42 41.832 416.19 42.404 417.224 42.404C418.192 42.404 418.698 41.964 418.698 41.414C418.698 39.434 412.01 40.864 412.01 36.354C412.01 34.264 413.792 32.548 417.004 32.548C420.172 32.548 421.932 34.308 422.174 36.728H418.698C418.588 35.892 417.95 35.342 416.894 35.342C416.014 35.342 415.53 35.694 415.53 36.288C415.53 38.246 422.174 36.86 422.24 41.436ZM428.524 43.152C428.524 44.274 427.622 45.176 426.302 45.176C424.96 45.176 424.058 44.274 424.058 43.152C424.058 41.986 424.96 41.084 426.302 41.084C427.622 41.084 428.524 41.986 428.524 43.152Z" fill="white" fill-opacity="0.5"/>
<circle cx="84.2391" cy="55.2391" r="34.2391" fill="#FFD854"/>
<path d="M99.0729 66.1076C95.4192 64.4644 95.2803 57.4112 95.2776 57.2333V52.5014C95.2776 47.9472 92.4831 44.0312 88.5122 42.3637C88.5036 40.0223 86.5887 38.1201 84.2359 38.1201C81.8829 38.1201 79.9681 40.0224 79.9595 42.3636C75.9887 44.031 73.1942 47.9471 73.1942 52.5013V57.2331C73.1916 57.4111 73.0525 64.4643 69.3987 66.1075C68.9825 66.2948 68.7537 66.746 68.85 67.1906C68.9461 67.6353 69.341 67.953 69.7978 67.953H79.0605C79.2503 68.9932 79.7443 69.961 80.4997 70.7449C81.503 71.7859 82.8299 72.3592 84.2357 72.3592C85.6415 72.3592 86.9684 71.7859 87.9717 70.7449C88.7272 69.9609 89.2211 68.9931 89.4109 67.953H98.6736C99.1304 67.953 99.5252 67.6354 99.6214 67.1906C99.7178 66.746 99.4891 66.2948 99.0729 66.1076ZM94.2599 62.7287C94.644 63.8884 95.1879 65.053 95.9591 66.0221H72.5125C73.2836 65.0531 73.8274 63.8885 74.2115 62.7287H94.2599ZM84.2359 40.0511C85.3002 40.0511 86.2 40.7633 86.4816 41.7341C85.7562 41.5843 85.0051 41.5053 84.2359 41.5053C83.4666 41.5053 82.7155 41.5842 81.9901 41.7341C82.2717 40.7634 83.1716 40.0511 84.2359 40.0511ZM75.1332 57.2391V52.5012C75.1332 47.5028 79.2166 43.4363 84.2359 43.4363C89.2551 43.4363 93.3385 47.5028 93.3385 52.5012V57.247C93.3398 57.3922 93.3625 58.9186 93.7488 60.7976H74.7227C75.1092 58.9168 75.132 57.3877 75.1332 57.2391ZM84.2359 70.4284C82.7561 70.4284 81.4646 69.3659 81.05 67.953H87.4216C87.007 69.3659 85.7158 70.4284 84.2359 70.4284Z" fill="black"/>
<path d="M84.2289 44.7861C80.0576 44.7861 76.6641 48.1656 76.6641 52.3196C76.6641 52.8528 77.0982 53.2851 77.6336 53.2851C78.169 53.2851 78.6031 52.8528 78.6031 52.3196C78.6031 49.2304 81.1268 46.7171 84.2289 46.7171C84.7644 46.7171 85.1985 46.2848 85.1985 45.7516C85.1984 45.2183 84.7643 44.7861 84.2289 44.7861Z" fill="black"/>
</svg>
