<svg width="616" height="192" viewBox="0 0 616 192" fill="none" xmlns="http://www.w3.org/2000/svg">
<rect width="615.739" height="191.378" rx="5" fill="#FF5034"/>
<path d="M155.75 91.8995L147.245 75.4495H154.035L158.795 85.7395L163.52 75.4495H170.24L161.735 91.8995V100.02H155.75V91.8995ZM191.761 90.2545C191.761 96.4495 187.281 100.3 181.541 100.3C175.801 100.3 171.461 96.4495 171.461 90.2545C171.461 84.0595 175.906 80.2095 181.611 80.2095C187.351 80.2095 191.761 84.0595 191.761 90.2545ZM177.551 90.2545C177.551 93.5445 179.371 95.1195 181.541 95.1195C183.676 95.1195 185.671 93.5445 185.671 90.2545C185.671 86.9295 183.711 85.3895 181.611 85.3895C179.441 85.3895 177.551 86.9295 177.551 90.2545ZM214.222 80.4895V100.02H208.237V97.3595C207.047 99.0395 204.947 100.23 202.322 100.23C197.807 100.23 194.762 97.1145 194.762 91.8995V80.4895H200.712V91.0945C200.712 93.7545 202.217 95.2245 204.457 95.2245C206.767 95.2245 208.237 93.7545 208.237 91.0945V80.4895H214.222ZM222.091 84.8295H218.066L219.886 75.4495H226.011L222.091 84.8295ZM227.671 80.4895H234.076L238.311 94.4195L242.546 80.4895H248.916L241.986 100.02H234.601L227.671 80.4895ZM260.046 85.0045C258.086 85.0045 256.581 86.1945 256.231 88.3645H263.721C263.721 86.2295 262.041 85.0045 260.046 85.0045ZM269.391 93.5445C268.446 97.3595 264.981 100.3 260.116 100.3C254.376 100.3 250.246 96.4495 250.246 90.2545C250.246 84.0595 254.306 80.2095 260.116 80.2095C265.821 80.2095 269.846 83.9895 269.846 89.9395C269.846 90.4995 269.811 91.0945 269.741 91.6895H256.196C256.406 94.2445 257.981 95.4345 259.906 95.4345C261.586 95.4345 262.531 94.5945 263.021 93.5445H269.391ZM279.23 90.2195C279.23 84.0595 283.045 80.2095 287.84 80.2095C290.71 80.2095 292.81 81.5045 293.86 83.2545V80.4895H299.845V99.9845C299.845 105.2 296.835 109.645 290.08 109.645C284.27 109.645 280.49 106.705 279.965 102.05H285.88C286.265 103.52 287.735 104.465 289.8 104.465C292.075 104.465 293.86 103.275 293.86 99.9845V97.2195C292.775 98.9345 290.71 100.3 287.84 100.3C283.045 100.3 279.23 96.3795 279.23 90.2195ZM293.86 90.2545C293.86 87.1395 291.865 85.4245 289.59 85.4245C287.35 85.4245 285.32 87.1045 285.32 90.2195C285.32 93.3345 287.35 95.0845 289.59 95.0845C291.865 95.0845 293.86 93.3695 293.86 90.2545ZM323.285 90.2545C323.285 96.4495 318.805 100.3 313.065 100.3C307.325 100.3 302.985 96.4495 302.985 90.2545C302.985 84.0595 307.43 80.2095 313.135 80.2095C318.875 80.2095 323.285 84.0595 323.285 90.2545ZM309.075 90.2545C309.075 93.5445 310.895 95.1195 313.065 95.1195C315.2 95.1195 317.195 93.5445 317.195 90.2545C317.195 86.9295 315.235 85.3895 313.135 85.3895C310.965 85.3895 309.075 86.9295 309.075 90.2545ZM327.405 93.2295V85.4595H325.025V80.4895H327.405V75.7295H333.39V80.4895H337.31V85.4595H333.39V93.2995C333.39 94.4545 333.88 94.9445 335.21 94.9445H337.345V100.02H334.3C330.24 100.02 327.405 98.3045 327.405 93.2295ZM346.906 90.2195C346.906 84.0595 350.721 80.2095 355.516 80.2095C358.421 80.2095 360.486 81.5395 361.536 83.2545V80.4895H367.521V100.02H361.536V97.2545C360.451 98.9695 358.386 100.3 355.481 100.3C350.721 100.3 346.906 96.3795 346.906 90.2195ZM361.536 90.2545C361.536 87.1395 359.541 85.4245 357.266 85.4245C355.026 85.4245 352.996 87.1045 352.996 90.2195C352.996 93.3345 355.026 95.0845 357.266 95.0845C359.541 95.0845 361.536 93.3695 361.536 90.2545ZM392.743 100.02V89.4145C392.743 86.7545 391.273 85.2845 388.998 85.2845C386.723 85.2845 385.253 86.7545 385.253 89.4145V100.02H379.268V80.4895H385.253V83.0795C386.443 81.4345 388.543 80.2795 391.168 80.2795C395.683 80.2795 398.693 83.3595 398.693 88.6095V100.02H392.743ZM411.462 85.0045C409.502 85.0045 407.997 86.1945 407.647 88.3645H415.137C415.137 86.2295 413.457 85.0045 411.462 85.0045ZM420.807 93.5445C419.862 97.3595 416.397 100.3 411.532 100.3C405.792 100.3 401.662 96.4495 401.662 90.2545C401.662 84.0595 405.722 80.2095 411.532 80.2095C417.237 80.2095 421.262 83.9895 421.262 89.9395C421.262 90.4995 421.227 91.0945 421.157 91.6895H407.612C407.822 94.2445 409.397 95.4345 411.322 95.4345C413.002 95.4345 413.947 94.5945 414.437 93.5445H420.807ZM427.709 100.02L422.389 80.4895H428.374L431.139 94.4545L434.429 80.4895H440.764L444.089 94.3845L446.819 80.4895H452.454L447.169 100.02H440.554L437.474 87.3495L434.289 100.02H427.709ZM155.155 136.255C156.24 134.54 158.305 133.21 161.175 133.21C165.97 133.21 169.785 137.06 169.785 143.22C169.785 149.38 165.97 153.3 161.175 153.3C158.305 153.3 156.24 151.935 155.155 150.29V162.33H149.17V133.49H155.155V136.255ZM163.695 143.22C163.695 140.105 161.665 138.425 159.39 138.425C157.15 138.425 155.12 140.14 155.12 143.255C155.12 146.37 157.15 148.085 159.39 148.085C161.665 148.085 163.695 146.335 163.695 143.22ZM178.91 143.955V153.02H172.925V133.49H178.91V136.745C180.275 134.68 182.41 133.28 185.035 133.28V139.615H183.39C180.555 139.615 178.91 140.595 178.91 143.955ZM207.006 143.255C207.006 149.45 202.526 153.3 196.786 153.3C191.046 153.3 186.706 149.45 186.706 143.255C186.706 137.06 191.151 133.21 196.856 133.21C202.596 133.21 207.006 137.06 207.006 143.255ZM192.796 143.255C192.796 146.545 194.616 148.12 196.786 148.12C198.921 148.12 200.916 146.545 200.916 143.255C200.916 139.93 198.956 138.39 196.856 138.39C194.686 138.39 192.796 139.93 192.796 143.255ZM213.156 131.46C211.021 131.46 209.586 130.025 209.586 128.24C209.586 126.42 211.021 124.985 213.156 124.985C215.256 124.985 216.691 126.42 216.691 128.24C216.691 130.025 215.256 131.46 213.156 131.46ZM210.181 133.49H216.166V155.54C216.166 160.615 213.331 162.33 209.271 162.33H206.926V157.255H208.361C209.691 157.255 210.181 156.765 210.181 155.61V133.49ZM229.079 138.005C227.119 138.005 225.614 139.195 225.264 141.365H232.754C232.754 139.23 231.074 138.005 229.079 138.005ZM238.424 146.545C237.479 150.36 234.014 153.3 229.149 153.3C223.409 153.3 219.279 149.45 219.279 143.255C219.279 137.06 223.339 133.21 229.149 133.21C234.854 133.21 238.879 136.99 238.879 142.94C238.879 143.5 238.844 144.095 238.774 144.69H225.229C225.439 147.245 227.014 148.435 228.939 148.435C230.619 148.435 231.564 147.595 232.054 146.545H238.424ZM240.846 143.255C240.846 137.095 244.906 133.21 250.646 133.21C255.546 133.21 259.011 135.905 260.026 140.56H253.656C253.166 139.195 252.186 138.32 250.541 138.32C248.406 138.32 246.936 140 246.936 143.255C246.936 146.51 248.406 148.19 250.541 148.19C252.186 148.19 253.131 147.385 253.656 145.95H260.026C259.011 150.465 255.546 153.3 250.646 153.3C244.906 153.3 240.846 149.45 240.846 143.255ZM264.173 146.23V138.46H261.793V133.49H264.173V128.73H270.158V133.49H274.078V138.46H270.158V146.3C270.158 147.455 270.648 147.945 271.978 147.945H274.113V153.02H271.068C267.008 153.02 264.173 151.305 264.173 146.23ZM285.458 153.02V138.46H283.288V133.49H285.458V132.93C285.458 127.82 288.608 125.3 294.558 125.615V130.69C292.248 130.55 291.443 131.25 291.443 133.315V133.49H294.663V138.46H291.443V153.02H285.458ZM303.461 143.955V153.02H297.476V133.49H303.461V136.745C304.826 134.68 306.961 133.28 309.586 133.28V139.615H307.941C305.106 139.615 303.461 140.595 303.461 143.955ZM331.556 143.255C331.556 149.45 327.076 153.3 321.336 153.3C315.596 153.3 311.256 149.45 311.256 143.255C311.256 137.06 315.701 133.21 321.406 133.21C327.146 133.21 331.556 137.06 331.556 143.255ZM317.346 143.255C317.346 146.545 319.166 148.12 321.336 148.12C323.471 148.12 325.466 146.545 325.466 143.255C325.466 139.93 323.506 138.39 321.406 138.39C319.236 138.39 317.346 139.93 317.346 143.255ZM361.647 153.02V142.415C361.647 139.86 360.177 138.46 357.902 138.46C355.627 138.46 354.157 139.86 354.157 142.415V153.02H348.207V142.415C348.207 139.86 346.737 138.46 344.462 138.46C342.187 138.46 340.717 139.86 340.717 142.415V153.02H334.732V133.49H340.717V135.94C341.872 134.365 343.867 133.28 346.422 133.28C349.362 133.28 351.742 134.575 353.072 136.92C354.367 134.855 356.817 133.28 359.652 133.28C364.482 133.28 367.597 136.36 367.597 141.61V153.02H361.647ZM388.404 128.45C396.244 128.45 401.284 133.42 401.284 140.735C401.284 148.015 396.244 153.02 388.404 153.02H379.199V128.45H388.404ZM385.184 147.84H388.019C392.534 147.84 395.194 145.25 395.194 140.735C395.194 136.22 392.534 133.56 388.019 133.56H385.184V147.84ZM403.439 143.22C403.439 137.06 407.254 133.21 412.049 133.21C414.954 133.21 417.019 134.54 418.069 136.255V133.49H424.054V153.02H418.069V150.255C416.984 151.97 414.919 153.3 412.014 153.3C407.254 153.3 403.439 149.38 403.439 143.22ZM418.069 143.255C418.069 140.14 416.074 138.425 413.799 138.425C411.559 138.425 409.529 140.105 409.529 143.22C409.529 146.335 411.559 148.085 413.799 148.085C416.074 148.085 418.069 146.37 418.069 143.255ZM426.529 133.49H432.934L437.169 147.42L441.404 133.49H447.774L440.844 153.02H433.459L426.529 133.49ZM450.293 153.02V133.49H456.278V153.02H450.293ZM453.303 131.46C451.168 131.46 449.733 130.025 449.733 128.24C449.733 126.42 451.168 124.985 453.303 124.985C455.403 124.985 456.838 126.42 456.838 128.24C456.838 130.025 455.403 131.46 453.303 131.46ZM459.425 143.22C459.425 137.06 463.24 133.21 468.035 133.21C470.625 133.21 472.865 134.4 474.055 136.185V127.12H480.04V153.02H474.055V150.22C472.97 152.005 470.905 153.3 468.035 153.3C463.24 153.3 459.425 149.38 459.425 143.22ZM474.055 143.255C474.055 140.14 472.06 138.425 469.785 138.425C467.545 138.425 465.515 140.105 465.515 143.22C465.515 146.335 467.545 148.085 469.785 148.085C472.06 148.085 474.055 146.37 474.055 143.255ZM486.47 144.34L485.77 127.575H492.245L491.545 144.34H486.47ZM492.63 150.08C492.63 151.865 491.195 153.3 489.095 153.3C486.96 153.3 485.525 151.865 485.525 150.08C485.525 148.225 486.96 146.79 489.095 146.79C491.195 146.79 492.63 148.225 492.63 150.08Z" fill="white"/>
<path d="M154.15 30.7445C159.078 30.7445 162.246 33.8685 162.246 38.4665C162.246 43.0425 159.078 46.1885 154.15 46.1885H148.364V30.7445H154.15ZM152.126 42.9325H153.908C156.746 42.9325 158.418 41.3045 158.418 38.4665C158.418 35.6285 156.746 33.9565 153.908 33.9565H152.126V42.9325ZM169.76 36.7505C168.528 36.7505 167.582 37.4985 167.362 38.8625H172.07C172.07 37.5205 171.014 36.7505 169.76 36.7505ZM175.634 42.1185C175.04 44.5165 172.862 46.3645 169.804 46.3645C166.196 46.3645 163.6 43.9445 163.6 40.0505C163.6 36.1565 166.152 33.7365 169.804 33.7365C173.39 33.7365 175.92 36.1125 175.92 39.8525C175.92 40.2045 175.898 40.5785 175.854 40.9525H167.34C167.472 42.5585 168.462 43.3065 169.672 43.3065C170.728 43.3065 171.322 42.7785 171.63 42.1185H175.634ZM177.157 40.0285C177.157 36.1565 179.555 33.7365 182.569 33.7365C184.395 33.7365 185.693 34.5725 186.353 35.6505V33.9125H190.115V46.1885H186.353V44.4505C185.671 45.5285 184.373 46.3645 182.547 46.3645C179.555 46.3645 177.157 43.9005 177.157 40.0285ZM186.353 40.0505C186.353 38.0925 185.099 37.0145 183.669 37.0145C182.261 37.0145 180.985 38.0705 180.985 40.0285C180.985 41.9865 182.261 43.0865 183.669 43.0865C185.099 43.0865 186.353 42.0085 186.353 40.0505ZM192.089 40.0285C192.089 36.1565 194.487 33.7365 197.501 33.7365C199.129 33.7365 200.537 34.4845 201.285 35.6065V29.9085H205.047V46.1885H201.285V44.4285C200.603 45.5505 199.305 46.3645 197.501 46.3645C194.487 46.3645 192.089 43.9005 192.089 40.0285ZM201.285 40.0505C201.285 38.0925 200.031 37.0145 198.601 37.0145C197.193 37.0145 195.917 38.0705 195.917 40.0285C195.917 41.9865 197.193 43.0865 198.601 43.0865C200.031 43.0865 201.285 42.0085 201.285 40.0505ZM207.768 46.1885V29.9085H211.53V46.1885H207.768ZM214.257 46.1885V33.9125H218.019V46.1885H214.257ZM216.149 32.6365C214.807 32.6365 213.905 31.7345 213.905 30.6125C213.905 29.4685 214.807 28.5665 216.149 28.5665C217.469 28.5665 218.371 29.4685 218.371 30.6125C218.371 31.7345 217.469 32.6365 216.149 32.6365ZM229.215 46.1885V39.5225C229.215 37.8505 228.291 36.9265 226.861 36.9265C225.431 36.9265 224.507 37.8505 224.507 39.5225V46.1885H220.745V33.9125H224.507V35.5405C225.255 34.5065 226.575 33.7805 228.225 33.7805C231.063 33.7805 232.955 35.7165 232.955 39.0165V46.1885H229.215ZM240.981 36.7505C239.749 36.7505 238.803 37.4985 238.583 38.8625H243.291C243.291 37.5205 242.235 36.7505 240.981 36.7505ZM246.855 42.1185C246.261 44.5165 244.083 46.3645 241.025 46.3645C237.417 46.3645 234.821 43.9445 234.821 40.0505C234.821 36.1565 237.373 33.7365 241.025 33.7365C244.611 33.7365 247.141 36.1125 247.141 39.8525C247.141 40.2045 247.119 40.5785 247.075 40.9525H238.561C238.693 42.5585 239.683 43.3065 240.893 43.3065C241.949 43.3065 242.543 42.7785 242.851 42.1185H246.855ZM253.108 44.3405C253.108 45.4625 252.206 46.3645 250.886 46.3645C249.544 46.3645 248.642 45.4625 248.642 44.3405C248.642 43.1745 249.544 42.2725 250.886 42.2725C252.206 42.2725 253.108 43.1745 253.108 44.3405ZM253.108 35.3865C253.108 36.5085 252.206 37.4105 250.886 37.4105C249.544 37.4105 248.642 36.5085 248.642 35.3865C248.642 34.2205 249.544 33.3185 250.886 33.3185C252.206 33.3185 253.108 34.2205 253.108 35.3865ZM275.242 38.4225C275.242 43.0645 271.722 46.3425 267.344 46.3425C262.966 46.3425 259.402 43.0645 259.402 38.4225C259.402 33.7805 262.966 30.5245 267.344 30.5245C271.744 30.5245 275.242 33.7805 275.242 38.4225ZM263.252 38.4225C263.252 41.1285 264.836 42.9105 267.344 42.9105C269.808 42.9105 271.414 41.1285 271.414 38.4225C271.414 35.6725 269.808 33.9345 267.344 33.9345C264.836 33.9345 263.252 35.6725 263.252 38.4225ZM276.587 40.0505C276.587 36.1785 279.139 33.7365 282.747 33.7365C285.827 33.7365 288.005 35.4305 288.643 38.3565H284.639C284.331 37.4985 283.715 36.9485 282.681 36.9485C281.339 36.9485 280.415 38.0045 280.415 40.0505C280.415 42.0965 281.339 43.1525 282.681 43.1525C283.715 43.1525 284.309 42.6465 284.639 41.7445H288.643C288.005 44.5825 285.827 46.3645 282.747 46.3645C279.139 46.3645 276.587 43.9445 276.587 40.0505ZM291.249 41.9205V37.0365H289.753V33.9125H291.249V30.9205H295.011V33.9125H297.475V37.0365H295.011V41.9645C295.011 42.6905 295.319 42.9985 296.155 42.9985H297.497V46.1885H295.583C293.031 46.1885 291.249 45.1105 291.249 41.9205ZM303.749 45.9685V43.1745C307.159 40.3585 310.789 37.5645 310.789 34.8585C310.789 33.6925 310.261 32.9445 309.117 32.9445C307.995 32.9445 307.335 33.8245 307.335 35.3425H303.705C303.815 31.4485 306.345 29.7765 309.271 29.7765C312.923 29.7765 314.551 31.9105 314.551 34.6165C314.551 38.1365 311.405 40.9525 308.853 42.9105H314.793V45.9685H303.749ZM317.021 41.4805H320.497C320.717 42.6025 321.355 43.2185 322.521 43.2185C324.105 43.2185 324.655 41.8765 324.655 38.8185C324.017 39.7205 322.829 40.2485 321.465 40.2485C318.715 40.2485 316.603 38.5325 316.603 35.1225C316.603 31.8665 318.715 29.7545 322.125 29.7545C326.701 29.7545 327.977 32.8565 327.977 37.7405C327.977 43.2185 326.701 46.2545 322.389 46.2545C318.891 46.2545 317.197 43.9445 317.021 41.4805ZM322.323 37.2785C323.555 37.2785 324.347 36.4865 324.347 35.1885C324.347 33.7585 323.511 32.9885 322.235 32.9885C320.937 32.9885 320.145 33.8245 320.145 35.1665C320.145 36.3765 320.849 37.2785 322.323 37.2785ZM329.412 49.5105L330.82 42.3825H334.67L331.876 49.5105H329.412ZM340.895 45.9685V43.1745C344.305 40.3585 347.935 37.5645 347.935 34.8585C347.935 33.6925 347.407 32.9445 346.263 32.9445C345.141 32.9445 344.481 33.8245 344.481 35.3425H340.851C340.961 31.4485 343.491 29.7765 346.417 29.7765C350.069 29.7765 351.697 31.9105 351.697 34.6165C351.697 38.1365 348.551 40.9525 345.999 42.9105H351.939V45.9685H340.895ZM353.595 37.9385C353.595 33.2305 355.201 29.7985 359.777 29.7985C364.353 29.7985 365.959 33.2305 365.959 37.9385C365.959 42.6905 364.353 46.1225 359.777 46.1225C355.201 46.1225 353.595 42.6905 353.595 37.9385ZM362.263 37.9385C362.263 35.4745 361.999 33.3185 359.777 33.3185C357.555 33.3185 357.291 35.4745 357.291 37.9385C357.291 40.4905 357.555 42.6025 359.777 42.6025C361.999 42.6025 362.263 40.4905 362.263 37.9385ZM367.815 45.9685V43.1745C371.225 40.3585 374.855 37.5645 374.855 34.8585C374.855 33.6925 374.327 32.9445 373.183 32.9445C372.061 32.9445 371.401 33.8245 371.401 35.3425H367.771C367.881 31.4485 370.411 29.7765 373.337 29.7765C376.989 29.7765 378.617 31.9105 378.617 34.6165C378.617 38.1365 375.471 40.9525 372.919 42.9105H378.859V45.9685H367.815ZM387.995 46.1885V43.3285H380.603V40.2925L387.555 30.3485H391.757V40.0725H393.561V43.3285H391.757V46.1885H387.995ZM384.563 40.0725H388.259V34.4845L384.563 40.0725Z" fill="white" fill-opacity="0.5"/>
<circle cx="87.3731" cy="56.8585" r="34.67" fill="#515BD7"/>
<path d="M102.399 67.8622C98.6992 66.1983 98.5584 59.0563 98.5557 58.8761V54.0847C98.5557 49.4733 95.7261 45.5079 91.7052 43.8195C91.6965 41.4486 89.7575 39.5225 87.3751 39.5225C84.9925 39.5225 83.0536 41.4487 83.0449 43.8194C79.0241 45.5078 76.1944 49.4731 76.1944 54.0846V58.876C76.1918 59.0562 76.051 66.1982 72.3512 67.862C71.9297 68.0516 71.6981 68.5085 71.7956 68.9588C71.8929 69.4091 72.2927 69.7307 72.7553 69.7307H82.1345C82.3268 70.7841 82.8269 71.764 83.5919 72.5577C84.6079 73.6119 85.9514 74.1925 87.3749 74.1925C88.7984 74.1925 90.142 73.6119 91.1579 72.5577C91.9229 71.764 92.4231 70.784 92.6152 69.7307H101.994C102.457 69.7307 102.857 69.4092 102.954 68.9588C103.052 68.5085 102.82 68.0517 102.399 67.8622ZM97.5253 64.4407C97.9142 65.615 98.4649 66.7942 99.2458 67.7755H75.5041C76.285 66.7943 76.8357 65.6152 77.2246 64.4407H97.5253ZM87.3751 41.4778C88.4527 41.4778 89.3639 42.1989 89.649 43.1819C88.9145 43.0302 88.154 42.9502 87.3751 42.9502C86.5961 42.9502 85.8356 43.0302 85.1011 43.1819C85.3862 42.199 86.2974 41.4778 87.3751 41.4778ZM78.1578 58.882V54.0846C78.1578 49.0232 82.2926 44.9055 87.3751 44.9055C92.4575 44.9055 96.5923 49.0232 96.5923 54.0846V58.89C96.5936 59.0371 96.6165 60.5827 97.0077 62.4853H77.7422C78.1336 60.5808 78.1567 59.0325 78.1578 58.882ZM87.3751 72.2373C85.8766 72.2373 84.5689 71.1614 84.1491 69.7308H90.6009C90.1811 71.1614 88.8736 72.2373 87.3751 72.2373Z" fill="white"/>
<path d="M87.3631 46.2725C83.1394 46.2725 79.7031 49.6944 79.7031 53.9007C79.7031 54.4406 80.1427 54.8784 80.6849 54.8784C81.227 54.8784 81.6666 54.4406 81.6666 53.9007C81.6666 50.7726 84.222 48.2278 87.3632 48.2278C87.9054 48.2278 88.3449 47.79 88.3449 47.2501C88.3449 46.7101 87.9053 46.2725 87.3631 46.2725Z" fill="white"/>
</svg>
