<svg width="1301" height="251" viewBox="0 0 1301 251" fill="none" xmlns="http://www.w3.org/2000/svg">
<rect width="1301" height="251" rx="10" fill="#535CD9"/>
<path d="M276 133.152L260.448 103.072H272.864L281.568 121.888L290.208 103.072H302.496L286.944 133.152V148H276V133.152ZM341.85 130.144C341.85 141.472 333.658 148.512 323.162 148.512C312.666 148.512 304.73 141.472 304.73 130.144C304.73 118.816 312.858 111.776 323.29 111.776C333.786 111.776 341.85 118.816 341.85 130.144ZM315.866 130.144C315.866 136.16 319.194 139.04 323.162 139.04C327.066 139.04 330.714 136.16 330.714 130.144C330.714 124.064 327.13 121.248 323.29 121.248C319.322 121.248 315.866 124.064 315.866 130.144ZM382.92 112.288V148H371.976V143.136C369.8 146.208 365.96 148.384 361.16 148.384C352.904 148.384 347.336 142.688 347.336 133.152V112.288H358.216V131.68C358.216 136.544 360.968 139.232 365.064 139.232C369.288 139.232 371.976 136.544 371.976 131.68V112.288H382.92ZM397.309 120.224H389.949L393.277 103.072H404.477L397.309 120.224ZM407.514 112.288H419.226L426.97 137.76L434.714 112.288H446.362L433.69 148H420.186L407.514 112.288ZM466.712 120.544C463.128 120.544 460.376 122.72 459.736 126.688H473.432C473.432 122.784 470.36 120.544 466.712 120.544ZM483.8 136.16C482.072 143.136 475.736 148.512 466.84 148.512C456.344 148.512 448.792 141.472 448.792 130.144C448.792 118.816 456.216 111.776 466.84 111.776C477.272 111.776 484.632 118.688 484.632 129.568C484.632 130.592 484.568 131.68 484.44 132.768H459.672C460.056 137.44 462.936 139.616 466.456 139.616C469.528 139.616 471.256 138.08 472.152 136.16H483.8ZM532.96 137.632C532.96 143.84 527.456 148.512 518.496 148.512C508.96 148.512 502.56 143.2 502.048 136.288H512.864C513.12 138.784 515.36 140.448 518.368 140.448C521.184 140.448 522.656 139.168 522.656 137.568C522.656 131.808 503.2 135.968 503.2 122.848C503.2 116.768 508.384 111.776 517.728 111.776C526.944 111.776 532.064 116.896 532.768 123.936H522.656C522.336 121.504 520.48 119.904 517.408 119.904C514.848 119.904 513.44 120.928 513.44 122.656C513.44 128.352 532.768 124.32 532.96 137.632ZM574.92 112.288V148H563.976V143.136C561.8 146.208 557.96 148.384 553.16 148.384C544.904 148.384 539.336 142.688 539.336 133.152V112.288H550.216V131.68C550.216 136.544 552.968 139.232 557.064 139.232C561.288 139.232 563.976 136.544 563.976 131.68V112.288H574.92ZM580.605 130.144C580.605 118.88 588.029 111.776 598.525 111.776C607.485 111.776 613.821 116.704 615.677 125.216H604.029C603.133 122.72 601.341 121.12 598.333 121.12C594.429 121.12 591.741 124.192 591.741 130.144C591.741 136.096 594.429 139.168 598.333 139.168C601.341 139.168 603.069 137.696 604.029 135.072H615.677C613.821 143.328 607.485 148.512 598.525 148.512C588.029 148.512 580.605 141.472 580.605 130.144ZM619.355 130.144C619.355 118.88 626.779 111.776 637.275 111.776C646.235 111.776 652.571 116.704 654.427 125.216H642.779C641.883 122.72 640.091 121.12 637.083 121.12C633.179 121.12 630.491 124.192 630.491 130.144C630.491 136.096 633.179 139.168 637.083 139.168C640.091 139.168 641.819 137.696 642.779 135.072H654.427C652.571 143.328 646.235 148.512 637.275 148.512C626.779 148.512 619.355 141.472 619.355 130.144ZM676.025 120.544C672.441 120.544 669.689 122.72 669.049 126.688H682.745C682.745 122.784 679.673 120.544 676.025 120.544ZM693.113 136.16C691.385 143.136 685.049 148.512 676.153 148.512C665.657 148.512 658.105 141.472 658.105 130.144C658.105 118.816 665.529 111.776 676.153 111.776C686.585 111.776 693.944 118.688 693.944 129.568C693.944 130.592 693.881 131.68 693.753 132.768H668.985C669.369 137.44 672.249 139.616 675.769 139.616C678.841 139.616 680.569 138.08 681.465 136.16H693.113ZM728.71 137.632C728.71 143.84 723.206 148.512 714.246 148.512C704.71 148.512 698.31 143.2 697.798 136.288H708.614C708.87 138.784 711.11 140.448 714.118 140.448C716.934 140.448 718.406 139.168 718.406 137.568C718.406 131.808 698.95 135.968 698.95 122.848C698.95 116.768 704.134 111.776 713.478 111.776C722.694 111.776 727.814 116.896 728.518 123.936H718.406C718.086 121.504 716.23 119.904 713.158 119.904C710.598 119.904 709.19 120.928 709.19 122.656C709.19 128.352 728.518 124.32 728.71 137.632ZM764.398 137.632C764.398 143.84 758.894 148.512 749.934 148.512C740.398 148.512 733.998 143.2 733.486 136.288H744.302C744.558 138.784 746.798 140.448 749.806 140.448C752.622 140.448 754.094 139.168 754.094 137.568C754.094 131.808 734.638 135.968 734.638 122.848C734.638 116.768 739.822 111.776 749.166 111.776C758.382 111.776 763.502 116.896 764.206 123.936H754.094C753.774 121.504 751.918 119.904 748.846 119.904C746.286 119.904 744.878 120.928 744.878 122.656C744.878 128.352 764.206 124.32 764.398 137.632ZM772.181 148V121.376H768.213V112.288H772.181V111.264C772.181 101.92 777.941 97.312 788.821 97.888V107.168C784.597 106.912 783.125 108.192 783.125 111.968V112.288H789.013V121.376H783.125V148H772.181ZM829.42 112.288V148H818.476V143.136C816.3 146.208 812.46 148.384 807.66 148.384C799.404 148.384 793.836 142.688 793.836 133.152V112.288H804.716V131.68C804.716 136.544 807.468 139.232 811.564 139.232C815.788 139.232 818.476 136.544 818.476 131.68V112.288H829.42ZM837.281 148V100.64H848.225V148H837.281ZM856.156 148V100.64H867.1V148H856.156ZM891.479 134.624L899.671 112.288H911.511L889.111 164.96H877.335L885.527 146.784L870.998 112.288H883.223L891.479 134.624ZM929.031 148V100.64H939.975V148H929.031ZM982.85 130.144C982.85 141.472 974.658 148.512 964.162 148.512C953.666 148.512 945.73 141.472 945.73 130.144C945.73 118.816 953.858 111.776 964.29 111.776C974.786 111.776 982.85 118.816 982.85 130.144ZM956.866 130.144C956.866 136.16 960.194 139.04 964.162 139.04C968.066 139.04 971.714 136.16 971.714 130.144C971.714 124.064 968.13 121.248 964.29 121.248C960.322 121.248 956.866 124.064 956.866 130.144ZM986.48 130.08C986.48 118.816 993.456 111.776 1002.22 111.776C1007.47 111.776 1011.31 114.144 1013.23 117.344V112.288H1024.18V147.936C1024.18 157.472 1018.67 165.6 1006.32 165.6C995.696 165.6 988.784 160.224 987.824 151.712H998.64C999.344 154.4 1002.03 156.128 1005.81 156.128C1009.97 156.128 1013.23 153.952 1013.23 147.936V142.88C1011.25 146.016 1007.47 148.512 1002.22 148.512C993.456 148.512 986.48 141.344 986.48 130.08ZM1013.23 130.144C1013.23 124.448 1009.58 121.312 1005.42 121.312C1001.33 121.312 997.616 124.384 997.616 130.08C997.616 135.776 1001.33 138.976 1005.42 138.976C1009.58 138.976 1013.23 135.84 1013.23 130.144ZM1029.92 130.08C1029.92 118.816 1036.89 111.776 1045.66 111.776C1050.91 111.776 1054.75 114.144 1056.67 117.344V112.288H1067.61V147.936C1067.61 157.472 1062.11 165.6 1049.76 165.6C1039.13 165.6 1032.22 160.224 1031.26 151.712H1042.08C1042.78 154.4 1045.47 156.128 1049.25 156.128C1053.41 156.128 1056.67 153.952 1056.67 147.936V142.88C1054.69 146.016 1050.91 148.512 1045.66 148.512C1036.89 148.512 1029.92 141.344 1029.92 130.08ZM1056.67 130.144C1056.67 124.448 1053.02 121.312 1048.86 121.312C1044.77 121.312 1041.05 124.384 1041.05 130.08C1041.05 135.776 1044.77 138.976 1048.86 138.976C1053.02 138.976 1056.67 135.84 1056.67 130.144ZM1091.27 120.544C1087.69 120.544 1084.94 122.72 1084.3 126.688H1097.99C1097.99 122.784 1094.92 120.544 1091.27 120.544ZM1108.36 136.16C1106.63 143.136 1100.3 148.512 1091.4 148.512C1080.91 148.512 1073.35 141.472 1073.35 130.144C1073.35 118.816 1080.78 111.776 1091.4 111.776C1101.83 111.776 1109.19 118.688 1109.19 129.568C1109.19 130.592 1109.13 131.68 1109 132.768H1084.23C1084.62 137.44 1087.5 139.616 1091.02 139.616C1094.09 139.616 1095.82 138.08 1096.71 136.16H1108.36ZM1112.79 130.08C1112.79 118.816 1119.77 111.776 1128.54 111.776C1133.27 111.776 1137.37 113.952 1139.54 117.216V100.64H1150.49V148H1139.54V142.88C1137.56 146.144 1133.78 148.512 1128.54 148.512C1119.77 148.512 1112.79 141.344 1112.79 130.08ZM1139.54 130.144C1139.54 124.448 1135.9 121.312 1131.74 121.312C1127.64 121.312 1123.93 124.384 1123.93 130.08C1123.93 135.776 1127.64 138.976 1131.74 138.976C1135.9 138.976 1139.54 135.84 1139.54 130.144ZM1171.97 148V112.288H1182.91V148H1171.97ZM1177.47 108.576C1173.57 108.576 1170.94 105.952 1170.94 102.688C1170.94 99.36 1173.57 96.736 1177.47 96.736C1181.31 96.736 1183.94 99.36 1183.94 102.688C1183.94 105.952 1181.31 108.576 1177.47 108.576ZM1215.48 148V128.608C1215.48 123.744 1212.8 121.056 1208.64 121.056C1204.48 121.056 1201.79 123.744 1201.79 128.608V148H1190.84V112.288H1201.79V117.024C1203.96 114.016 1207.8 111.904 1212.6 111.904C1220.86 111.904 1226.36 117.536 1226.36 127.136V148H1215.48Z" fill="white"/>
<path fill-rule="evenodd" clip-rule="evenodd" d="M144 200C184.869 200 218 166.869 218 126C218 85.1309 184.869 52 144 52C103.131 52 70 85.1309 70 126C70 166.869 103.131 200 144 200ZM186.314 94.2519C189.409 97.3459 189.409 102.363 186.314 105.456L133.495 158.276C130.401 161.37 125.385 161.37 122.291 158.276L101.163 137.148C98.0689 134.054 98.0689 129.038 101.163 125.944C104.257 122.85 109.274 122.85 112.368 125.944L127.893 141.469L175.11 94.2519C178.205 91.1578 183.22 91.1578 186.314 94.2519Z" fill="#FFD755"/>
</svg>
