<svg width="1357" height="302" viewBox="0 0 1357 302" fill="none" xmlns="http://www.w3.org/2000/svg">
<rect width="1357" height="302" rx="10" fill="#FFD755"/>
<path d="M263.968 133V88.072H276.896L289.504 119.176L301.984 88.072H314.848V133H303.904V106.056L293.856 133H285.024L274.912 105.992V133H263.968ZM338.462 105.544C334.878 105.544 332.126 107.72 331.486 111.688H345.182C345.182 107.784 342.11 105.544 338.462 105.544ZM355.55 121.16C353.822 128.136 347.486 133.512 338.59 133.512C328.094 133.512 320.542 126.472 320.542 115.144C320.542 103.816 327.966 96.776 338.59 96.776C349.022 96.776 356.382 103.688 356.382 114.568C356.382 115.592 356.318 116.68 356.19 117.768H331.422C331.806 122.44 334.686 124.616 338.206 124.616C341.278 124.616 343.006 123.08 343.902 121.16H355.55ZM377.9 105.544C374.316 105.544 371.564 107.72 370.924 111.688H384.62C384.62 107.784 381.548 105.544 377.9 105.544ZM394.988 121.16C393.26 128.136 386.924 133.512 378.028 133.512C367.532 133.512 359.98 126.472 359.98 115.144C359.98 103.816 367.404 96.776 378.028 96.776C388.46 96.776 395.819 103.688 395.819 114.568C395.819 115.592 395.756 116.68 395.628 117.768H370.86C371.244 122.44 374.124 124.616 377.644 124.616C380.716 124.616 382.444 123.08 383.34 121.16H394.988ZM403.321 120.584V106.376H398.969V97.288H403.321V88.584H414.265V97.288H421.433V106.376H414.265V120.712C414.265 122.824 415.161 123.72 417.593 123.72H421.497V133H415.929C408.505 133 403.321 129.864 403.321 120.584ZM427.593 133V97.288H438.537V133H427.593ZM433.097 93.576C429.193 93.576 426.569 90.952 426.569 87.688C426.569 84.36 429.193 81.736 433.097 81.736C436.937 81.736 439.561 84.36 439.561 87.688C439.561 90.952 436.937 93.576 433.097 93.576ZM471.108 133V113.608C471.108 108.744 468.42 106.056 464.26 106.056C460.1 106.056 457.412 108.744 457.412 113.608V133H446.468V97.288H457.412V102.024C459.588 99.016 463.428 96.904 468.228 96.904C476.484 96.904 481.988 102.536 481.988 112.136V133H471.108ZM487.417 115.08C487.417 103.816 494.393 96.776 503.161 96.776C508.409 96.776 512.249 99.144 514.169 102.344V97.288H525.113V132.936C525.113 142.472 519.609 150.6 507.257 150.6C496.633 150.6 489.721 145.224 488.761 136.712H499.577C500.281 139.4 502.969 141.128 506.745 141.128C510.905 141.128 514.169 138.952 514.169 132.936V127.88C512.185 131.016 508.409 133.512 503.161 133.512C494.393 133.512 487.417 126.344 487.417 115.08ZM514.169 115.144C514.169 109.448 510.521 106.312 506.361 106.312C502.265 106.312 498.553 109.384 498.553 115.08C498.553 120.776 502.265 123.976 506.361 123.976C510.521 123.976 514.169 120.84 514.169 115.144ZM552.609 133L542.881 97.288H553.825L558.881 122.824L564.897 97.288H576.481L582.561 122.696L587.553 97.288H597.857L588.193 133H576.097L570.465 109.832L564.641 133H552.609ZM602.031 133V97.288H612.975V133H602.031ZM607.535 93.576C603.631 93.576 601.007 90.952 601.007 87.688C601.007 84.36 603.631 81.736 607.535 81.736C611.375 81.736 613.999 84.36 613.999 87.688C613.999 90.952 611.375 93.576 607.535 93.576ZM622.634 120.584V106.376H618.282V97.288H622.634V88.584H633.578V97.288H640.746V106.376H633.578V120.712C633.578 122.824 634.474 123.72 636.906 123.72H640.81V133H635.242C627.818 133 622.634 129.864 622.634 120.584ZM646.906 133V85.64H657.85V102.088C660.026 99.016 663.93 96.904 668.858 96.904C676.986 96.904 682.426 102.536 682.426 112.136V133H671.546V113.608C671.546 108.744 668.858 106.056 664.698 106.056C660.538 106.056 657.85 108.744 657.85 113.608V133H646.906ZM705.321 120.584V106.376H700.969V97.288H705.321V88.584H716.265V97.288H723.433V106.376H716.265V120.712C716.265 122.824 717.161 123.72 719.593 123.72H723.497V133H717.929C710.505 133 705.321 129.864 705.321 120.584ZM729.593 133V85.64H740.537V102.088C742.713 99.016 746.617 96.904 751.545 96.904C759.673 96.904 765.113 102.536 765.113 112.136V133H754.233V113.608C754.233 108.744 751.545 106.056 747.385 106.056C743.225 106.056 740.537 108.744 740.537 113.608V133H729.593ZM788.462 105.544C784.878 105.544 782.126 107.72 781.486 111.688H795.182C795.182 107.784 792.11 105.544 788.462 105.544ZM805.55 121.16C803.822 128.136 797.486 133.512 788.59 133.512C778.094 133.512 770.542 126.472 770.542 115.144C770.542 103.816 777.966 96.776 788.59 96.776C799.022 96.776 806.382 103.688 806.382 114.568C806.382 115.592 806.318 116.68 806.19 117.768H781.422C781.806 122.44 784.686 124.616 788.206 124.616C791.278 124.616 793.006 123.08 793.902 121.16H805.55ZM836.662 102.344C838.646 99.208 842.422 96.776 847.67 96.776C856.438 96.776 863.414 103.816 863.414 115.08C863.414 126.344 856.438 133.512 847.67 133.512C842.422 133.512 838.646 131.016 836.662 128.008V150.024H825.718V97.288H836.662V102.344ZM852.278 115.08C852.278 109.384 848.566 106.312 844.406 106.312C840.31 106.312 836.598 109.448 836.598 115.144C836.598 120.84 840.31 123.976 844.406 123.976C848.566 123.976 852.278 120.776 852.278 115.08ZM880.1 116.424V133H869.156V97.288H880.1V103.24C882.596 99.464 886.5 96.904 891.3 96.904V108.488H888.292C883.108 108.488 880.1 110.28 880.1 116.424ZM931.475 115.144C931.475 126.472 923.283 133.512 912.787 133.512C902.291 133.512 894.355 126.472 894.355 115.144C894.355 103.816 902.483 96.776 912.915 96.776C923.411 96.776 931.475 103.816 931.475 115.144ZM905.491 115.144C905.491 121.16 908.819 124.04 912.787 124.04C916.691 124.04 920.339 121.16 920.339 115.144C920.339 109.064 916.755 106.248 912.915 106.248C908.947 106.248 905.491 109.064 905.491 115.144ZM942.72 93.576C938.817 93.576 936.193 90.952 936.193 87.688C936.193 84.36 938.817 81.736 942.72 81.736C946.561 81.736 949.185 84.36 949.185 87.688C949.185 90.952 946.561 93.576 942.72 93.576ZM937.281 97.288H948.225V137.608C948.225 146.888 943.041 150.024 935.617 150.024H931.328V140.744H933.953C936.385 140.744 937.281 139.848 937.281 137.736V97.288ZM971.837 105.544C968.253 105.544 965.501 107.72 964.861 111.688H978.557C978.557 107.784 975.485 105.544 971.837 105.544ZM988.925 121.16C987.197 128.136 980.861 133.512 971.965 133.512C961.469 133.512 953.917 126.472 953.917 115.144C953.917 103.816 961.341 96.776 971.965 96.776C982.397 96.776 989.757 103.688 989.757 114.568C989.757 115.592 989.693 116.68 989.565 117.768H964.797C965.181 122.44 968.061 124.616 971.581 124.616C974.653 124.616 976.381 123.08 977.277 121.16H988.925ZM993.355 115.144C993.355 103.88 1000.78 96.776 1011.27 96.776C1020.23 96.776 1026.57 101.704 1028.43 110.216H1016.78C1015.88 107.72 1014.09 106.12 1011.08 106.12C1007.18 106.12 1004.49 109.192 1004.49 115.144C1004.49 121.096 1007.18 124.168 1011.08 124.168C1014.09 124.168 1015.82 122.696 1016.78 120.072H1028.43C1026.57 128.328 1020.23 133.512 1011.27 133.512C1000.78 133.512 993.355 126.472 993.355 115.144ZM1036.01 120.584V106.376H1031.66V97.288H1036.01V88.584H1046.95V97.288H1054.12V106.376H1046.95V120.712C1046.95 122.824 1047.85 123.72 1050.28 123.72H1054.18V133H1048.62C1041.19 133 1036.01 129.864 1036.01 120.584ZM313.184 213V193.608C313.184 188.936 310.496 186.376 306.336 186.376C302.176 186.376 299.488 188.936 299.488 193.608V213H288.608V193.608C288.608 188.936 285.92 186.376 281.76 186.376C277.6 186.376 274.912 188.936 274.912 193.608V213H263.968V177.288H274.912V181.768C277.024 178.888 280.672 176.904 285.344 176.904C290.72 176.904 295.072 179.272 297.504 183.56C299.872 179.784 304.352 176.904 309.536 176.904C318.368 176.904 324.064 182.536 324.064 192.136V213H313.184ZM329.542 195.08C329.542 183.816 336.518 176.776 345.286 176.776C350.598 176.776 354.374 179.208 356.294 182.344V177.288H367.238V213H356.294V207.944C354.31 211.08 350.534 213.512 345.222 213.512C336.518 213.512 329.542 206.344 329.542 195.08ZM356.294 195.144C356.294 189.448 352.646 186.312 348.486 186.312C344.39 186.312 340.678 189.384 340.678 195.08C340.678 200.776 344.39 203.976 348.486 203.976C352.646 203.976 356.294 200.84 356.294 195.144ZM399.796 213V193.608C399.796 188.744 397.108 186.056 392.948 186.056C388.788 186.056 386.1 188.744 386.1 193.608V213H375.156V177.288H386.1V182.024C388.276 179.016 392.116 176.904 396.916 176.904C405.172 176.904 410.676 182.536 410.676 192.136V213H399.796ZM416.105 195.08C416.105 183.816 423.081 176.776 431.849 176.776C437.161 176.776 440.937 179.208 442.857 182.344V177.288H453.801V213H442.857V207.944C440.873 211.08 437.097 213.512 431.785 213.512C423.081 213.512 416.105 206.344 416.105 195.08ZM442.857 195.144C442.857 189.448 439.209 186.312 435.049 186.312C430.953 186.312 427.241 189.384 427.241 195.08C427.241 200.776 430.953 203.976 435.049 203.976C439.209 203.976 442.857 200.84 442.857 195.144ZM459.542 195.08C459.542 183.816 466.518 176.776 475.286 176.776C480.534 176.776 484.374 179.144 486.294 182.344V177.288H497.238V212.936C497.238 222.472 491.734 230.6 479.382 230.6C468.758 230.6 461.846 225.224 460.886 216.712H471.702C472.406 219.4 475.094 221.128 478.87 221.128C483.03 221.128 486.294 218.952 486.294 212.936V207.88C484.31 211.016 480.534 213.512 475.286 213.512C466.518 213.512 459.542 206.344 459.542 195.08ZM486.294 195.144C486.294 189.448 482.646 186.312 478.486 186.312C474.39 186.312 470.678 189.384 470.678 195.08C470.678 200.776 474.39 203.976 478.486 203.976C482.646 203.976 486.294 200.84 486.294 195.144ZM520.9 185.544C517.316 185.544 514.564 187.72 513.924 191.688H527.62C527.62 187.784 524.548 185.544 520.9 185.544ZM537.988 201.16C536.26 208.136 529.924 213.512 521.028 213.512C510.532 213.512 502.98 206.472 502.98 195.144C502.98 183.816 510.404 176.776 521.028 176.776C531.46 176.776 538.819 183.688 538.819 194.568C538.819 195.592 538.756 196.68 538.628 197.768H513.86C514.244 202.44 517.124 204.616 520.644 204.616C523.716 204.616 525.444 203.08 526.34 201.16H537.988ZM555.537 196.424V213H544.593V177.288H555.537V183.24C558.033 179.464 561.937 176.904 566.737 176.904V188.488H563.729C558.545 188.488 555.537 190.28 555.537 196.424ZM591.547 213L581.819 177.288H592.763L597.819 202.824L603.835 177.288H615.419L621.499 202.696L626.491 177.288H636.795L627.131 213H615.035L609.403 189.832L603.579 213H591.547ZM638.792 195.08C638.792 183.816 645.768 176.776 654.536 176.776C659.848 176.776 663.624 179.208 665.544 182.344V177.288H676.488V213H665.544V207.944C663.56 211.08 659.784 213.512 654.472 213.512C645.768 213.512 638.792 206.344 638.792 195.08ZM665.544 195.144C665.544 189.448 661.896 186.312 657.736 186.312C653.64 186.312 649.928 189.384 649.928 195.08C649.928 200.776 653.64 203.976 657.736 203.976C661.896 203.976 665.544 200.84 665.544 195.144ZM713.398 202.632C713.398 208.84 707.894 213.512 698.934 213.512C689.398 213.512 682.998 208.2 682.486 201.288H693.302C693.558 203.784 695.798 205.448 698.806 205.448C701.622 205.448 703.094 204.168 703.094 202.568C703.094 196.808 683.638 200.968 683.638 187.848C683.638 181.768 688.822 176.776 698.166 176.776C707.382 176.776 712.502 181.896 713.206 188.936H703.094C702.774 186.504 700.918 184.904 697.846 184.904C695.286 184.904 693.878 185.928 693.878 187.656C693.878 193.352 713.206 189.32 713.398 202.632ZM762.648 202.632C762.648 208.84 757.144 213.512 748.184 213.512C738.648 213.512 732.248 208.2 731.736 201.288H742.552C742.808 203.784 745.048 205.448 748.056 205.448C750.872 205.448 752.344 204.168 752.344 202.568C752.344 196.808 732.888 200.968 732.888 187.848C732.888 181.768 738.072 176.776 747.416 176.776C756.632 176.776 761.752 181.896 762.456 188.936H752.344C752.024 186.504 750.168 184.904 747.096 184.904C744.536 184.904 743.128 185.928 743.128 187.656C743.128 193.352 762.456 189.32 762.648 202.632ZM804.607 177.288V213H793.663V208.136C791.487 211.208 787.647 213.384 782.847 213.384C774.591 213.384 769.023 207.688 769.023 198.152V177.288H779.903V196.68C779.903 201.544 782.655 204.232 786.751 204.232C790.975 204.232 793.663 201.544 793.663 196.68V177.288H804.607ZM810.292 195.144C810.292 183.88 817.716 176.776 828.212 176.776C837.172 176.776 843.508 181.704 845.364 190.216H833.716C832.82 187.72 831.028 186.12 828.02 186.12C824.116 186.12 821.428 189.192 821.428 195.144C821.428 201.096 824.116 204.168 828.02 204.168C831.028 204.168 832.756 202.696 833.716 200.072H845.364C843.508 208.328 837.172 213.512 828.212 213.512C817.716 213.512 810.292 206.472 810.292 195.144ZM849.042 195.144C849.042 183.88 856.466 176.776 866.962 176.776C875.922 176.776 882.258 181.704 884.114 190.216H872.466C871.57 187.72 869.778 186.12 866.77 186.12C862.866 186.12 860.178 189.192 860.178 195.144C860.178 201.096 862.866 204.168 866.77 204.168C869.778 204.168 871.506 202.696 872.466 200.072H884.114C882.258 208.328 875.922 213.512 866.962 213.512C856.466 213.512 849.042 206.472 849.042 195.144ZM905.712 185.544C902.128 185.544 899.376 187.72 898.736 191.688H912.432C912.432 187.784 909.36 185.544 905.712 185.544ZM922.8 201.16C921.072 208.136 914.736 213.512 905.84 213.512C895.344 213.512 887.792 206.472 887.792 195.144C887.792 183.816 895.216 176.776 905.84 176.776C916.272 176.776 923.632 183.688 923.632 194.568C923.632 195.592 923.568 196.68 923.44 197.768H898.672C899.056 202.44 901.936 204.616 905.456 204.616C908.528 204.616 910.256 203.08 911.152 201.16H922.8ZM958.398 202.632C958.398 208.84 952.894 213.512 943.934 213.512C934.398 213.512 927.998 208.2 927.486 201.288H938.302C938.558 203.784 940.798 205.448 943.806 205.448C946.622 205.448 948.094 204.168 948.094 202.568C948.094 196.808 928.638 200.968 928.638 187.848C928.638 181.768 933.822 176.776 943.166 176.776C952.382 176.776 957.502 181.896 958.206 188.936H948.094C947.774 186.504 945.918 184.904 942.846 184.904C940.286 184.904 938.878 185.928 938.878 187.656C938.878 193.352 958.206 189.32 958.398 202.632ZM994.085 202.632C994.085 208.84 988.581 213.512 979.621 213.512C970.085 213.512 963.685 208.2 963.173 201.288H973.989C974.245 203.784 976.485 205.448 979.493 205.448C982.309 205.448 983.781 204.168 983.781 202.568C983.781 196.808 964.325 200.968 964.325 187.848C964.325 181.768 969.509 176.776 978.853 176.776C988.069 176.776 993.189 181.896 993.893 188.936H983.781C983.461 186.504 981.605 184.904 978.533 184.904C975.973 184.904 974.565 185.928 974.565 187.656C974.565 193.352 993.893 189.32 994.085 202.632ZM1001.87 213V186.376H997.901V177.288H1001.87V176.264C1001.87 166.92 1007.63 162.312 1018.51 162.888V172.168C1014.28 171.912 1012.81 173.192 1012.81 176.968V177.288H1018.7V186.376H1012.81V213H1001.87ZM1059.11 177.288V213H1048.16V208.136C1045.99 211.208 1042.15 213.384 1037.35 213.384C1029.09 213.384 1023.52 207.688 1023.52 198.152V177.288H1034.4V196.68C1034.4 201.544 1037.16 204.232 1041.25 204.232C1045.48 204.232 1048.16 201.544 1048.16 196.68V177.288H1059.11ZM1066.97 213V165.64H1077.91V213H1066.97ZM1083.09 222.664L1087.19 201.928H1098.39L1090.26 222.664H1083.09ZM1142.61 213V193.608C1142.61 188.744 1139.92 186.056 1135.76 186.056C1131.6 186.056 1128.91 188.744 1128.91 193.608V213H1117.97V177.288H1128.91V182.024C1131.09 179.016 1134.93 176.904 1139.73 176.904C1147.98 176.904 1153.49 182.536 1153.49 192.136V213H1142.61ZM1176.84 185.544C1173.25 185.544 1170.5 187.72 1169.86 191.688H1183.56C1183.56 187.784 1180.49 185.544 1176.84 185.544ZM1193.93 201.16C1192.2 208.136 1185.86 213.512 1176.97 213.512C1166.47 213.512 1158.92 206.472 1158.92 195.144C1158.92 183.816 1166.34 176.776 1176.97 176.776C1187.4 176.776 1194.76 183.688 1194.76 194.568C1194.76 195.592 1194.69 196.68 1194.57 197.768H1169.8C1170.18 202.44 1173.06 204.616 1176.58 204.616C1179.65 204.616 1181.38 203.08 1182.28 201.16H1193.93ZM1221.65 213L1214.8 203.08L1209.04 213H1197.2L1208.98 194.76L1196.88 177.288H1209.17L1216.02 187.144L1221.78 177.288H1233.62L1221.65 195.272L1233.94 213H1221.65ZM1239.88 200.584V186.376H1235.53V177.288H1239.88V168.584H1250.83V177.288H1258V186.376H1250.83V200.712C1250.83 202.824 1251.72 203.72 1254.16 203.72H1258.06V213H1252.49C1245.07 213 1239.88 209.864 1239.88 200.584ZM1268 197.128L1266.72 166.472H1278.56L1277.28 197.128H1268ZM1279.26 207.624C1279.26 210.888 1276.64 213.512 1272.8 213.512C1268.89 213.512 1266.27 210.888 1266.27 207.624C1266.27 204.232 1268.89 201.608 1272.8 201.608C1276.64 201.608 1279.26 204.232 1279.26 207.624Z" fill="#1A191C"/>
<path fill-rule="evenodd" clip-rule="evenodd" d="M144 225C184.869 225 218 191.869 218 151C218 110.131 184.869 77 144 77C103.131 77 70 110.131 70 151C70 191.869 103.131 225 144 225ZM186.314 119.252C189.409 122.346 189.409 127.363 186.314 130.456L133.495 183.276C130.401 186.37 125.385 186.37 122.291 183.276L101.163 162.148C98.0689 159.054 98.0689 154.038 101.163 150.944C104.257 147.85 109.274 147.85 112.368 150.944L127.893 166.469L175.11 119.252C178.205 116.158 183.22 116.158 186.314 119.252Z" fill="#535CD9"/>
</svg>
