<svg width="275" height="73" viewBox="0 0 275 73" fill="none" xmlns="http://www.w3.org/2000/svg">
<rect width="275" height="73" rx="7" fill="#1E1E20"/>
<circle cx="41.5" cy="36.5" r="22.5" fill="#5D5ACC" fill-opacity="0.25"/>
<mask id="path-3-inside-1_858_1027" fill="white">
<path d="M36 31C36 30.4477 36.4477 30 37 30H46C46.5523 30 47 30.4477 47 31V43C47 43.5523 46.5523 44 46 44H37C36.4477 44 36 43.5523 36 43V31Z"/>
</mask>
<path d="M35 31C35 29.8954 35.8954 29 37 29H46C47.1046 29 48 29.8954 48 31H46H37H35ZM48 44C48 45.1046 47.1046 46 46 46H37C35.8954 46 35 45.1046 35 44L37 42H46L48 44ZM37 46C35.8954 46 35 45.1046 35 44V31C35 29.8954 35.8954 29 37 29V31V42V46ZM46 29C47.1046 29 48 29.8954 48 31V44C48 45.1046 47.1046 46 46 46V42V31V29Z" fill="#5D5ACC" mask="url(#path-3-inside-1_858_1027)"/>
<path d="M85.806 31.5V22.374H88.432L90.993 28.692L93.528 22.374H96.141V31.5H93.918V26.027L91.877 31.5H90.083L88.029 26.014V31.5H85.806ZM104.838 27.873C104.838 30.174 103.174 31.604 101.042 31.604C98.9096 31.604 97.2976 30.174 97.2976 27.873C97.2976 25.572 98.9486 24.142 101.068 24.142C103.2 24.142 104.838 25.572 104.838 27.873ZM99.5596 27.873C99.5596 29.095 100.236 29.68 101.042 29.68C101.835 29.68 102.576 29.095 102.576 27.873C102.576 26.638 101.848 26.066 101.068 26.066C100.262 26.066 99.5596 26.638 99.5596 27.873ZM108.24 25.273C108.643 24.623 109.436 24.142 110.476 24.142C112.27 24.142 113.674 25.572 113.674 27.86C113.674 30.148 112.257 31.604 110.476 31.604C109.41 31.604 108.643 31.123 108.24 30.486V31.5H106.017V21.88H108.24V25.273ZM111.412 27.86C111.412 26.703 110.658 26.079 109.813 26.079C108.981 26.079 108.227 26.716 108.227 27.873C108.227 29.03 108.981 29.667 109.813 29.667C110.658 29.667 111.412 29.017 111.412 27.86ZM114.84 31.5V24.246H117.063V31.5H114.84ZM115.958 23.492C115.165 23.492 114.632 22.959 114.632 22.296C114.632 21.62 115.165 21.087 115.958 21.087C116.738 21.087 117.271 21.62 117.271 22.296C117.271 22.959 116.738 23.492 115.958 23.492ZM118.674 31.5V21.88H120.897V31.5H118.674ZM125.706 25.923C124.978 25.923 124.419 26.365 124.289 27.171H127.071C127.071 26.378 126.447 25.923 125.706 25.923ZM129.177 29.095C128.826 30.512 127.539 31.604 125.732 31.604C123.6 31.604 122.066 30.174 122.066 27.873C122.066 25.572 123.574 24.142 125.732 24.142C127.851 24.142 129.346 25.546 129.346 27.756C129.346 27.964 129.333 28.185 129.307 28.406H124.276C124.354 29.355 124.939 29.797 125.654 29.797C126.278 29.797 126.629 29.485 126.811 29.095H129.177ZM133.274 31.5V22.374H139.215V24.155H135.497V26.079H138.279V27.808H135.497V31.5H133.274ZM140.383 31.5V24.246H142.606V31.5H140.383ZM141.501 23.492C140.708 23.492 140.175 22.959 140.175 22.296C140.175 21.62 140.708 21.087 141.501 21.087C142.281 21.087 142.814 21.62 142.814 22.296C142.814 22.959 142.281 23.492 141.501 23.492ZM146.44 28.133V31.5H144.217V24.246H146.44V25.455C146.947 24.688 147.74 24.168 148.715 24.168V26.521H148.104C147.051 26.521 146.44 26.885 146.44 28.133ZM155.667 29.394C155.667 30.655 154.549 31.604 152.729 31.604C150.792 31.604 149.492 30.525 149.388 29.121H151.585C151.637 29.628 152.092 29.966 152.703 29.966C153.275 29.966 153.574 29.706 153.574 29.381C153.574 28.211 149.622 29.056 149.622 26.391C149.622 25.156 150.675 24.142 152.573 24.142C154.445 24.142 155.485 25.182 155.628 26.612H153.574C153.509 26.118 153.132 25.793 152.508 25.793C151.988 25.793 151.702 26.001 151.702 26.352C151.702 27.509 155.628 26.69 155.667 29.394ZM157.378 28.978V26.092H156.494V24.246H157.378V22.478H159.601V24.246H161.057V26.092H159.601V29.004C159.601 29.433 159.783 29.615 160.277 29.615H161.07V31.5H159.939C158.431 31.5 157.378 30.863 157.378 28.978ZM168.482 22.374C171.394 22.374 173.266 24.22 173.266 26.937C173.266 29.641 171.394 31.5 168.482 31.5H165.063V22.374H168.482ZM167.286 29.576H168.339C170.016 29.576 171.004 28.614 171.004 26.937C171.004 25.26 170.016 24.272 168.339 24.272H167.286V29.576ZM177.706 25.923C176.978 25.923 176.419 26.365 176.289 27.171H179.071C179.071 26.378 178.447 25.923 177.706 25.923ZM181.177 29.095C180.826 30.512 179.539 31.604 177.732 31.604C175.6 31.604 174.066 30.174 174.066 27.873C174.066 25.572 175.574 24.142 177.732 24.142C179.851 24.142 181.346 25.546 181.346 27.756C181.346 27.964 181.333 28.185 181.307 28.406H176.276C176.354 29.355 176.939 29.797 177.654 29.797C178.278 29.797 178.629 29.485 178.811 29.095H181.177ZM188.408 29.394C188.408 30.655 187.29 31.604 185.47 31.604C183.533 31.604 182.233 30.525 182.129 29.121H184.326C184.378 29.628 184.833 29.966 185.444 29.966C186.016 29.966 186.315 29.706 186.315 29.381C186.315 28.211 182.363 29.056 182.363 26.391C182.363 25.156 183.416 24.142 185.314 24.142C187.186 24.142 188.226 25.182 188.369 26.612H186.315C186.25 26.118 185.873 25.793 185.249 25.793C184.729 25.793 184.443 26.001 184.443 26.352C184.443 27.509 188.369 26.69 188.408 29.394ZM189.768 31.5V24.246H191.991V31.5H189.768ZM190.886 23.492C190.093 23.492 189.56 22.959 189.56 22.296C189.56 21.62 190.093 21.087 190.886 21.087C191.666 21.087 192.199 21.62 192.199 22.296C192.199 22.959 191.666 23.492 190.886 23.492ZM193.16 27.86C193.16 25.572 194.577 24.142 196.358 24.142C197.424 24.142 198.204 24.623 198.594 25.273V24.246H200.817V31.487C200.817 33.424 199.699 35.075 197.19 35.075C195.032 35.075 193.628 33.983 193.433 32.254H195.63C195.773 32.8 196.319 33.151 197.086 33.151C197.931 33.151 198.594 32.709 198.594 31.487V30.46C198.191 31.097 197.424 31.604 196.358 31.604C194.577 31.604 193.16 30.148 193.16 27.86ZM198.594 27.873C198.594 26.716 197.853 26.079 197.008 26.079C196.176 26.079 195.422 26.703 195.422 27.86C195.422 29.017 196.176 29.667 197.008 29.667C197.853 29.667 198.594 29.03 198.594 27.873ZM207.43 31.5V27.561C207.43 26.573 206.884 26.027 206.039 26.027C205.194 26.027 204.648 26.573 204.648 27.561V31.5H202.425V24.246H204.648V25.208C205.09 24.597 205.87 24.168 206.845 24.168C208.522 24.168 209.64 25.312 209.64 27.262V31.5H207.43ZM92.904 47.873C92.904 50.174 91.24 51.604 89.108 51.604C86.976 51.604 85.364 50.174 85.364 47.873C85.364 45.572 87.015 44.142 89.134 44.142C91.266 44.142 92.904 45.572 92.904 47.873ZM87.626 47.873C87.626 49.095 88.302 49.68 89.108 49.68C89.901 49.68 90.642 49.095 90.642 47.873C90.642 46.638 89.914 46.066 89.134 46.066C88.328 46.066 87.626 46.638 87.626 47.873ZM99.0883 51.5V47.561C99.0883 46.573 98.5423 46.027 97.6973 46.027C96.8523 46.027 96.3063 46.573 96.3063 47.561V51.5H94.0833V44.246H96.3063V45.208C96.7483 44.597 97.5283 44.168 98.5033 44.168C100.18 44.168 101.298 45.312 101.298 47.262V51.5H99.0883ZM111.188 42.374V44.155H107.821V46.001H110.798V47.717H107.821V49.719H111.188V51.5H105.598V42.374H111.188ZM111.942 44.246H114.321L115.894 49.42L117.467 44.246H119.833L117.259 51.5H114.516L111.942 44.246ZM123.967 45.923C123.239 45.923 122.68 46.365 122.55 47.171H125.332C125.332 46.378 124.708 45.923 123.967 45.923ZM127.438 49.095C127.087 50.512 125.8 51.604 123.993 51.604C121.861 51.604 120.327 50.174 120.327 47.873C120.327 45.572 121.835 44.142 123.993 44.142C126.112 44.142 127.607 45.546 127.607 47.756C127.607 47.964 127.594 48.185 127.568 48.406H122.537C122.615 49.355 123.2 49.797 123.915 49.797C124.539 49.797 124.89 49.485 125.072 49.095H127.438ZM131.003 48.133V51.5H128.78V44.246H131.003V45.455C131.51 44.688 132.303 44.168 133.278 44.168V46.521H132.667C131.614 46.521 131.003 46.885 131.003 48.133ZM137.681 48.783L139.345 44.246H141.75L137.2 54.945H134.808L136.472 51.253L133.521 44.246H136.004L137.681 48.783ZM148.728 42.374C151.64 42.374 153.512 44.22 153.512 46.937C153.512 49.641 151.64 51.5 148.728 51.5H145.309V42.374H148.728ZM147.532 49.576H148.585C150.262 49.576 151.25 48.614 151.25 46.937C151.25 45.26 150.262 44.272 148.585 44.272H147.532V49.576ZM157.952 45.923C157.224 45.923 156.665 46.365 156.535 47.171H159.317C159.317 46.378 158.693 45.923 157.952 45.923ZM161.423 49.095C161.072 50.512 159.785 51.604 157.978 51.604C155.846 51.604 154.312 50.174 154.312 47.873C154.312 45.572 155.82 44.142 157.978 44.142C160.097 44.142 161.592 45.546 161.592 47.756C161.592 47.964 161.579 48.185 161.553 48.406H156.522C156.6 49.355 157.185 49.797 157.9 49.797C158.524 49.797 158.875 49.485 159.057 49.095H161.423ZM162.076 44.246H164.455L166.028 49.42L167.601 44.246H169.967L167.393 51.5H164.65L162.076 44.246ZM170.903 51.5V44.246H173.126V51.5H170.903ZM172.021 43.492C171.228 43.492 170.695 42.959 170.695 42.296C170.695 41.62 171.228 41.087 172.021 41.087C172.801 41.087 173.334 41.62 173.334 42.296C173.334 42.959 172.801 43.492 172.021 43.492ZM174.295 47.873C174.295 45.585 175.803 44.142 177.935 44.142C179.755 44.142 181.042 45.143 181.419 46.872H179.053C178.871 46.365 178.507 46.04 177.896 46.04C177.103 46.04 176.557 46.664 176.557 47.873C176.557 49.082 177.103 49.706 177.896 49.706C178.507 49.706 178.858 49.407 179.053 48.874H181.419C181.042 50.551 179.755 51.604 177.935 51.604C175.803 51.604 174.295 50.174 174.295 47.873ZM185.806 45.923C185.078 45.923 184.519 46.365 184.389 47.171H187.171C187.171 46.378 186.547 45.923 185.806 45.923ZM189.277 49.095C188.926 50.512 187.639 51.604 185.832 51.604C183.7 51.604 182.166 50.174 182.166 47.873C182.166 45.572 183.674 44.142 185.832 44.142C187.951 44.142 189.446 45.546 189.446 47.756C189.446 47.964 189.433 48.185 189.407 48.406H184.376C184.454 49.355 185.039 49.797 185.754 49.797C186.378 49.797 186.729 49.485 186.911 49.095H189.277ZM196.508 49.394C196.508 50.655 195.39 51.604 193.57 51.604C191.633 51.604 190.333 50.525 190.229 49.121H192.426C192.478 49.628 192.933 49.966 193.544 49.966C194.116 49.966 194.415 49.706 194.415 49.381C194.415 48.211 190.463 49.056 190.463 46.391C190.463 45.156 191.516 44.142 193.414 44.142C195.286 44.142 196.326 45.182 196.469 46.612H194.415C194.35 46.118 193.973 45.793 193.349 45.793C192.829 45.793 192.543 46.001 192.543 46.352C192.543 47.509 196.469 46.69 196.508 49.394Z" fill="white"/>
</svg>
