<svg width="275" height="73" viewBox="0 0 275 73" fill="none" xmlns="http://www.w3.org/2000/svg">
<rect width="275" height="73" rx="7" fill="#1E1E20"/>
<circle cx="41.5" cy="36.5" r="22.5" fill="#FB5031" fill-opacity="0.25"/>
<rect x="41.3159" y="30.3718" width="10" height="13" rx="1.5" transform="rotate(17.6654 41.3159 30.3718)" fill="#FB5031" stroke="#631C0D"/>
<rect x="33.5" y="28.5" width="10" height="13" rx="1.5" fill="#FB5031" stroke="#631C0D"/>
<path d="M86.196 21.997H92.267V23.947H88.211V25.741C88.549 25.364 89.199 25.091 89.953 25.091C92.02 25.091 92.813 26.664 92.813 28.198C92.813 30.2 91.643 31.5 89.537 31.5C87.405 31.5 86.17 30.317 86.092 28.679H88.263C88.354 29.173 88.731 29.615 89.459 29.615C90.304 29.615 90.668 29.004 90.668 28.185C90.668 27.327 90.239 26.872 89.446 26.872C88.822 26.872 88.458 27.21 88.341 27.652H86.196V21.997ZM94.0401 26.625C94.0401 23.843 94.9891 21.815 97.6931 21.815C100.397 21.815 101.346 23.843 101.346 26.625C101.346 29.433 100.397 31.461 97.6931 31.461C94.9891 31.461 94.0401 29.433 94.0401 26.625ZM99.1621 26.625C99.1621 25.169 99.0061 23.895 97.6931 23.895C96.3801 23.895 96.2241 25.169 96.2241 26.625C96.2241 28.133 96.3801 29.381 97.6931 29.381C99.0061 29.381 99.1621 28.133 99.1621 26.625ZM104.965 23.635H107.071V25.962H109.333V27.951H107.071V30.265H104.965V27.951H102.703V25.962H104.965V23.635ZM113.621 27.821V22.374H115.844V27.834C115.844 28.913 116.377 29.537 117.43 29.537C118.483 29.537 119.042 28.913 119.042 27.834V22.374H121.265V27.821C121.265 30.343 119.497 31.591 117.391 31.591C115.272 31.591 113.621 30.343 113.621 27.821ZM127.831 31.5V27.561C127.831 26.573 127.285 26.027 126.44 26.027C125.595 26.027 125.049 26.573 125.049 27.561V31.5H122.826V24.246H125.049V25.208C125.491 24.597 126.271 24.168 127.246 24.168C128.923 24.168 130.041 25.312 130.041 27.262V31.5H127.831ZM131.585 31.5V24.246H133.808V31.5H131.585ZM132.703 23.492C131.91 23.492 131.377 22.959 131.377 22.296C131.377 21.62 131.91 21.087 132.703 21.087C133.483 21.087 134.016 21.62 134.016 22.296C134.016 22.959 133.483 23.492 132.703 23.492ZM134.977 27.886C134.977 25.676 136.485 24.168 138.292 24.168C139.241 24.168 139.969 24.532 140.411 25.078V24.246H142.634V34.958H140.411V30.59C139.943 31.162 139.228 31.591 138.266 31.591C136.485 31.591 134.977 30.096 134.977 27.886ZM140.411 27.873C140.411 26.651 139.579 26.092 138.825 26.092C138.084 26.092 137.239 26.664 137.239 27.886C137.239 29.108 138.084 29.667 138.825 29.667C139.579 29.667 140.411 29.095 140.411 27.873ZM151.406 24.246V31.5H149.183V30.512C148.741 31.136 147.961 31.578 146.986 31.578C145.309 31.578 144.178 30.421 144.178 28.484V24.246H146.388V28.185C146.388 29.173 146.947 29.719 147.779 29.719C148.637 29.719 149.183 29.173 149.183 28.185V24.246H151.406ZM156.2 25.923C155.472 25.923 154.913 26.365 154.783 27.171H157.565C157.565 26.378 156.941 25.923 156.2 25.923ZM159.671 29.095C159.32 30.512 158.033 31.604 156.226 31.604C154.094 31.604 152.56 30.174 152.56 27.873C152.56 25.572 154.068 24.142 156.226 24.142C158.345 24.142 159.84 25.546 159.84 27.756C159.84 27.964 159.827 28.185 159.801 28.406H154.77C154.848 29.355 155.433 29.797 156.148 29.797C156.772 29.797 157.123 29.485 157.305 29.095H159.671ZM167.187 22.374C170.099 22.374 171.971 24.22 171.971 26.937C171.971 29.641 170.099 31.5 167.187 31.5H163.768V22.374H167.187ZM165.991 29.576H167.044C168.721 29.576 169.709 28.614 169.709 26.937C169.709 25.26 168.721 24.272 167.044 24.272H165.991V29.576ZM176.411 25.923C175.683 25.923 175.124 26.365 174.994 27.171H177.776C177.776 26.378 177.152 25.923 176.411 25.923ZM179.882 29.095C179.531 30.512 178.244 31.604 176.437 31.604C174.305 31.604 172.771 30.174 172.771 27.873C172.771 25.572 174.279 24.142 176.437 24.142C178.556 24.142 180.051 25.546 180.051 27.756C180.051 27.964 180.038 28.185 180.012 28.406H174.981C175.059 29.355 175.644 29.797 176.359 29.797C176.983 29.797 177.334 29.485 177.516 29.095H179.882ZM187.113 29.394C187.113 30.655 185.995 31.604 184.175 31.604C182.238 31.604 180.938 30.525 180.834 29.121H183.031C183.083 29.628 183.538 29.966 184.149 29.966C184.721 29.966 185.02 29.706 185.02 29.381C185.02 28.211 181.068 29.056 181.068 26.391C181.068 25.156 182.121 24.142 184.019 24.142C185.891 24.142 186.931 25.182 187.074 26.612H185.02C184.955 26.118 184.578 25.793 183.954 25.793C183.434 25.793 183.148 26.001 183.148 26.352C183.148 27.509 187.074 26.69 187.113 29.394ZM188.473 31.5V24.246H190.696V31.5H188.473ZM189.591 23.492C188.798 23.492 188.265 22.959 188.265 22.296C188.265 21.62 188.798 21.087 189.591 21.087C190.371 21.087 190.904 21.62 190.904 22.296C190.904 22.959 190.371 23.492 189.591 23.492ZM191.865 27.86C191.865 25.572 193.282 24.142 195.063 24.142C196.129 24.142 196.909 24.623 197.299 25.273V24.246H199.522V31.487C199.522 33.424 198.404 35.075 195.895 35.075C193.737 35.075 192.333 33.983 192.138 32.254H194.335C194.478 32.8 195.024 33.151 195.791 33.151C196.636 33.151 197.299 32.709 197.299 31.487V30.46C196.896 31.097 196.129 31.604 195.063 31.604C193.282 31.604 191.865 30.148 191.865 27.86ZM197.299 27.873C197.299 26.716 196.558 26.079 195.713 26.079C194.881 26.079 194.127 26.703 194.127 27.86C194.127 29.017 194.881 29.667 195.713 29.667C196.558 29.667 197.299 29.03 197.299 27.873ZM206.135 31.5V27.561C206.135 26.573 205.589 26.027 204.744 26.027C203.899 26.027 203.353 26.573 203.353 27.561V31.5H201.13V24.246H203.353V25.208C203.795 24.597 204.575 24.168 205.55 24.168C207.227 24.168 208.345 25.312 208.345 27.262V31.5H206.135ZM217.676 28.718C217.676 28.068 217.221 27.691 216.48 27.691H214.868V29.706H216.506C217.247 29.706 217.676 29.368 217.676 28.718ZM217.455 25.117C217.455 24.493 217.052 24.155 216.324 24.155H214.868V26.066H216.324C217.052 26.066 217.455 25.741 217.455 25.117ZM219.925 29.017C219.925 30.525 218.82 31.5 216.896 31.5H212.645V22.374H216.753C218.612 22.374 219.717 23.297 219.717 24.74C219.717 25.845 219.054 26.56 218.17 26.82C219.236 27.041 219.925 27.977 219.925 29.017ZM221.214 31.5V21.88H223.437V31.5H221.214ZM232.146 27.873C232.146 30.174 230.482 31.604 228.35 31.604C226.218 31.604 224.606 30.174 224.606 27.873C224.606 25.572 226.257 24.142 228.376 24.142C230.508 24.142 232.146 25.572 232.146 27.873ZM226.868 27.873C226.868 29.095 227.544 29.68 228.35 29.68C229.143 29.68 229.884 29.095 229.884 27.873C229.884 26.638 229.156 26.066 228.376 26.066C227.57 26.066 226.868 26.638 226.868 27.873ZM232.884 27.873C232.884 25.585 234.392 24.142 236.524 24.142C238.344 24.142 239.631 25.143 240.008 26.872H237.642C237.46 26.365 237.096 26.04 236.485 26.04C235.692 26.04 235.146 26.664 235.146 27.873C235.146 29.082 235.692 29.706 236.485 29.706C237.096 29.706 237.447 29.407 237.642 28.874H240.008C239.631 30.551 238.344 31.604 236.524 31.604C234.392 31.604 232.884 30.174 232.884 27.873ZM241.197 31.5V21.88H243.42V27.197L245.617 24.246H248.36L245.344 27.886L248.386 31.5H245.63L243.42 28.458V31.5H241.197ZM255.122 29.394C255.122 30.655 254.004 31.604 252.184 31.604C250.247 31.604 248.947 30.525 248.843 29.121H251.04C251.092 29.628 251.547 29.966 252.158 29.966C252.73 29.966 253.029 29.706 253.029 29.381C253.029 28.211 249.077 29.056 249.077 26.391C249.077 25.156 250.13 24.142 252.028 24.142C253.9 24.142 254.94 25.182 255.083 26.612H253.029C252.964 26.118 252.587 25.793 251.963 25.793C251.443 25.793 251.157 26.001 251.157 26.352C251.157 27.509 255.083 26.69 255.122 29.394ZM87.028 51.5L85.052 44.246H87.275L88.302 49.433L89.524 44.246H91.877L93.112 49.407L94.126 44.246H96.219L94.256 51.5H91.799L90.655 46.794L89.472 51.5H87.028ZM97.0667 51.5V44.246H99.2897V51.5H97.0667ZM98.1847 43.492C97.3917 43.492 96.8587 42.959 96.8587 42.296C96.8587 41.62 97.3917 41.087 98.1847 41.087C98.9647 41.087 99.4977 41.62 99.4977 42.296C99.4977 42.959 98.9647 43.492 98.1847 43.492ZM101.252 48.978V46.092H100.368V44.246H101.252V42.478H103.475V44.246H104.931V46.092H103.475V49.004C103.475 49.433 103.657 49.615 104.151 49.615H104.944V51.5H103.813C102.305 51.5 101.252 50.863 101.252 48.978ZM106.182 51.5V41.88H108.405V45.221C108.847 44.597 109.64 44.168 110.641 44.168C112.292 44.168 113.397 45.312 113.397 47.262V51.5H111.187V47.561C111.187 46.573 110.641 46.027 109.796 46.027C108.951 46.027 108.405 46.573 108.405 47.561V51.5H106.182ZM117.32 46.924C117.32 44.194 119.218 42.27 121.909 42.27C124.08 42.27 125.718 43.492 126.238 45.468H123.794C123.417 44.688 122.728 44.298 121.883 44.298C120.518 44.298 119.582 45.312 119.582 46.924C119.582 48.536 120.518 49.55 121.883 49.55C122.728 49.55 123.417 49.16 123.794 48.38H126.238C125.718 50.356 124.08 51.565 121.909 51.565C119.218 51.565 117.32 49.654 117.32 46.924ZM127.157 47.86C127.157 45.572 128.574 44.142 130.355 44.142C131.434 44.142 132.201 44.636 132.591 45.273V44.246H134.814V51.5H132.591V50.473C132.188 51.11 131.421 51.604 130.342 51.604C128.574 51.604 127.157 50.148 127.157 47.86ZM132.591 47.873C132.591 46.716 131.85 46.079 131.005 46.079C130.173 46.079 129.419 46.703 129.419 47.86C129.419 49.017 130.173 49.667 131.005 49.667C131.85 49.667 132.591 49.03 132.591 47.873ZM138.645 48.133V51.5H136.422V44.246H138.645V45.455C139.152 44.688 139.945 44.168 140.92 44.168V46.521H140.309C139.256 46.521 138.645 46.885 138.645 48.133ZM145.181 45.923C144.453 45.923 143.894 46.365 143.764 47.171H146.546C146.546 46.378 145.922 45.923 145.181 45.923ZM148.652 49.095C148.301 50.512 147.014 51.604 145.207 51.604C143.075 51.604 141.541 50.174 141.541 47.873C141.541 45.572 143.049 44.142 145.207 44.142C147.326 44.142 148.821 45.546 148.821 47.756C148.821 47.964 148.808 48.185 148.782 48.406H143.751C143.829 49.355 144.414 49.797 145.129 49.797C145.753 49.797 146.104 49.485 146.286 49.095H148.652ZM150.215 51.5V46.092H149.409V44.246H150.215V44.038C150.215 42.14 151.385 41.204 153.595 41.321V43.206C152.737 43.154 152.438 43.414 152.438 44.181V44.246H153.634V46.092H152.438V51.5H150.215ZM161.841 44.246V51.5H159.618V50.512C159.176 51.136 158.396 51.578 157.421 51.578C155.744 51.578 154.613 50.421 154.613 48.484V44.246H156.823V48.185C156.823 49.173 157.382 49.719 158.214 49.719C159.072 49.719 159.618 49.173 159.618 48.185V44.246H161.841ZM163.438 51.5V41.88H165.661V51.5H163.438ZM167.272 51.5V41.88H169.495V51.5H167.272ZM174.447 48.783L176.111 44.246H178.516L173.966 54.945H171.574L173.238 51.253L170.287 44.246H172.77L174.447 48.783ZM181.698 46.924C181.698 44.194 183.596 42.27 186.287 42.27C188.458 42.27 190.096 43.492 190.616 45.468H188.172C187.795 44.688 187.106 44.298 186.261 44.298C184.896 44.298 183.96 45.312 183.96 46.924C183.96 48.536 184.896 49.55 186.261 49.55C187.106 49.55 187.795 49.16 188.172 48.38H190.616C190.096 50.356 188.458 51.565 186.287 51.565C183.596 51.565 181.698 49.654 181.698 46.924ZM199.075 47.873C199.075 50.174 197.411 51.604 195.279 51.604C193.147 51.604 191.535 50.174 191.535 47.873C191.535 45.572 193.186 44.142 195.305 44.142C197.437 44.142 199.075 45.572 199.075 47.873ZM193.797 47.873C193.797 49.095 194.473 49.68 195.279 49.68C196.072 49.68 196.813 49.095 196.813 47.873C196.813 46.638 196.085 46.066 195.305 46.066C194.499 46.066 193.797 46.638 193.797 47.873ZM199.812 47.86C199.812 45.572 201.229 44.142 203.01 44.142C203.972 44.142 204.804 44.584 205.246 45.247V41.88H207.469V51.5H205.246V50.46C204.843 51.123 204.076 51.604 203.01 51.604C201.229 51.604 199.812 50.148 199.812 47.86ZM205.246 47.873C205.246 46.716 204.505 46.079 203.66 46.079C202.828 46.079 202.074 46.703 202.074 47.86C202.074 49.017 202.828 49.667 203.66 49.667C204.505 49.667 205.246 49.03 205.246 47.873ZM212.275 45.923C211.547 45.923 210.988 46.365 210.858 47.171H213.64C213.64 46.378 213.016 45.923 212.275 45.923ZM215.746 49.095C215.395 50.512 214.108 51.604 212.301 51.604C210.169 51.604 208.635 50.174 208.635 47.873C208.635 45.572 210.143 44.142 212.301 44.142C214.42 44.142 215.915 45.546 215.915 47.756C215.915 47.964 215.902 48.185 215.876 48.406H210.845C210.923 49.355 211.508 49.797 212.223 49.797C212.847 49.797 213.198 49.485 213.38 49.095H215.746ZM216.646 47.86C216.646 45.572 218.063 44.142 219.844 44.142C220.806 44.142 221.638 44.584 222.08 45.247V41.88H224.303V51.5H222.08V50.46C221.677 51.123 220.91 51.604 219.844 51.604C218.063 51.604 216.646 50.148 216.646 47.86ZM222.08 47.873C222.08 46.716 221.339 46.079 220.494 46.079C219.662 46.079 218.908 46.703 218.908 47.86C218.908 49.017 219.662 49.667 220.494 49.667C221.339 49.667 222.08 49.03 222.08 47.873Z" fill="white"/>
</svg>
