<svg width="45" height="45" viewBox="0 0 45 45" fill="none" xmlns="http://www.w3.org/2000/svg">
<circle cx="22.5" cy="22.5" r="22.5" fill="#FFD752" fill-opacity="0.25"/>
<path d="M13 12H24.973V33H13C12.4477 33 12 32.5523 12 32V13C12 12.4477 12.4477 12 13 12Z" stroke="#FFD855"/>
<path fill-rule="evenodd" clip-rule="evenodd" d="M30.9943 12H25.5078V33H30.9943C31.5466 33 31.9943 32.5523 31.9943 32V13C31.9943 12.4477 31.5466 12 30.9943 12ZM26.0484 16.3242H31.4538V18.7948H26.0484V16.3242ZM31.4538 21.2656H26.0484V23.7362H31.4538V21.2656ZM26.0484 26.2051H31.4538V28.6757H26.0484V26.2051Z" fill="#FFD855"/>
<path d="M25.5078 12V11.5H25.0078V12H25.5078ZM25.5078 33H25.0078V33.5H25.5078V33ZM31.4538 16.3242H31.9538V15.8242H31.4538V16.3242ZM26.0484 16.3242V15.8242H25.5484V16.3242H26.0484ZM31.4538 18.7948V19.2948H31.9538V18.7948H31.4538ZM26.0484 18.7948H25.5484V19.2948H26.0484V18.7948ZM26.0484 21.2656V20.7656H25.5484V21.2656H26.0484ZM31.4538 21.2656H31.9538V20.7656H31.4538V21.2656ZM26.0484 23.7362H25.5484V24.2362H26.0484V23.7362ZM31.4538 23.7362V24.2362H31.9538V23.7362H31.4538ZM31.4538 26.2051H31.9538V25.7051H31.4538V26.2051ZM26.0484 26.2051V25.7051H25.5484V26.2051H26.0484ZM31.4538 28.6757V29.1757H31.9538V28.6757H31.4538ZM26.0484 28.6757H25.5484V29.1757H26.0484V28.6757ZM25.5078 12.5H30.9943V11.5H25.5078V12.5ZM26.0078 33V12H25.0078V33H26.0078ZM30.9943 32.5H25.5078V33.5H30.9943V32.5ZM31.4943 32C31.4943 32.2761 31.2704 32.5 30.9943 32.5V33.5C31.8227 33.5 32.4943 32.8284 32.4943 32H31.4943ZM31.4943 13V32H32.4943V13H31.4943ZM30.9943 12.5C31.2704 12.5 31.4943 12.7239 31.4943 13H32.4943C32.4943 12.1716 31.8227 11.5 30.9943 11.5V12.5ZM31.4538 15.8242H26.0484V16.8242H31.4538V15.8242ZM31.9538 18.7948V16.3242H30.9538V18.7948H31.9538ZM26.0484 19.2948H31.4538V18.2948H26.0484V19.2948ZM25.5484 16.3242V18.7948H26.5484V16.3242H25.5484ZM26.0484 21.7656H31.4538V20.7656H26.0484V21.7656ZM26.5484 23.7362V21.2656H25.5484V23.7362H26.5484ZM31.4538 23.2362H26.0484V24.2362H31.4538V23.2362ZM30.9538 21.2656V23.7362H31.9538V21.2656H30.9538ZM31.4538 25.7051H26.0484V26.7051H31.4538V25.7051ZM31.9538 28.6757V26.2051H30.9538V28.6757H31.9538ZM26.0484 29.1757H31.4538V28.1757H26.0484V29.1757ZM25.5484 26.2051V28.6757H26.5484V26.2051H25.5484Z" fill="#FFD855"/>
</svg>
